if (_typeface_js && _typeface_js.loadFace) _typeface_js.loadFace({"glyphs":{"S":{"x_min":109,"x_max":621,"ha":731,"o":"m 109 657 q 218 849 109 794 q 328 877 264 871 l 401 877 q 593 767 538 877 q 621 657 615 721 l 621 621 l 475 621 l 475 694 q 401 767 475 761 l 328 767 q 255 694 260 767 l 255 584 q 328 512 255 517 l 401 512 q 593 402 538 512 q 621 292 615 356 l 621 219 q 593 109 615 155 q 401 0 538 0 l 328 0 q 218 27 264 3 q 109 219 109 82 l 109 255 l 255 255 l 255 182 q 328 110 260 110 l 401 110 q 475 183 475 115 l 475 329 q 401 402 475 396 l 328 402 q 136 511 191 402 q 109 621 114 557 l 109 657 "},"¦":{"x_min":329,"x_max":439,"ha":731,"o":"m 439 402 l 329 402 l 329 877 l 439 877 l 439 402 m 439 -146 l 329 -146 l 329 329 l 439 329 l 439 -146 "},"/":{"x_min":109,"x_max":621,"ha":731,"o":"m 511 766 l 511 877 l 621 877 l 621 767 l 219 36 l 219 -73 l 109 -73 l 109 35 l 511 766 "},"y":{"x_min":109,"x_max":621,"ha":731,"o":"m 475 731 l 621 731 l 621 621 l 438 219 l 438 0 l 292 0 l 292 219 l 109 621 l 109 731 l 255 731 l 255 621 l 365 328 l 475 621 l 475 731 "},"≈":{"x_min":110,"x_max":616,"ha":731,"o":"m 110 454 q 137 535 110 500 q 236 579 172 579 q 389 517 285 579 q 491 470 468 470 q 512 491 512 470 l 512 543 l 616 543 l 616 491 q 588 409 616 444 q 491 366 553 366 q 335 427 439 366 q 234 475 256 475 q 212 453 213 475 l 212 402 l 110 402 l 110 454 m 110 235 q 137 316 110 281 q 236 360 172 360 q 389 297 285 360 q 491 250 468 250 q 512 271 512 250 l 512 323 l 616 323 l 616 271 q 588 189 616 224 q 491 146 553 146 q 335 208 439 146 q 234 256 256 256 q 212 234 213 256 l 212 183 l 110 183 l 110 235 "},"Π":{"x_min":73,"x_max":658,"ha":731,"o":"m 658 877 l 658 767 l 585 767 l 585 0 l 439 0 l 439 767 l 292 767 l 292 0 l 146 0 l 146 767 l 73 767 l 73 877 l 658 877 "},"Ž":{"x_min":110,"x_max":585.140625,"ha":731,"o":"m 548 1170 l 402 950 l 329 950 l 183 1170 l 292 1170 l 365 1041 l 438 1170 l 548 1170 m 585 767 l 256 110 l 585 110 l 585 0 l 110 0 l 110 110 l 438 767 l 110 767 l 110 877 l 585 877 l 585 767 "},"Á":{"x_min":109,"x_max":621,"ha":731,"o":"m 492 1170 l 419 951 l 310 951 l 383 1170 l 492 1170 m 438 877 l 621 109 l 621 0 l 475 0 l 475 109 l 443 292 l 286 292 l 255 109 l 255 0 l 109 0 l 109 109 l 291 877 l 438 877 m 304 402 l 425 402 l 364 767 l 304 402 "},"g":{"x_min":109,"x_max":621,"ha":731,"o":"m 621 402 l 621 219 q 511 27 621 82 q 401 0 465 3 l 328 0 q 136 109 191 0 q 109 219 114 155 l 109 511 q 218 703 109 648 q 328 731 264 725 l 401 731 q 593 621 538 731 q 621 511 615 575 l 621 475 l 475 475 l 475 548 q 401 621 475 615 l 328 621 q 255 548 260 621 l 255 183 q 328 110 255 115 l 401 110 q 475 182 469 110 l 475 292 l 365 292 l 365 402 l 621 402 "},"²":{"x_min":237,"x_max":493,"ha":731,"o":"m 310 621 l 310 567 l 493 567 l 493 512 l 237 512 l 237 603 q 346 713 244 713 l 383 713 q 420 749 420 714 l 420 785 q 383 822 418 822 l 346 822 q 310 785 310 820 l 310 749 l 237 749 l 237 767 q 346 877 244 877 l 383 877 q 493 767 493 869 q 383 658 485 658 l 346 658 q 310 621 310 656 "},"–":{"x_min":146,"x_max":585,"ha":731,"o":"m 146 420 l 585 420 l 585 311 l 146 311 l 146 420 "},"ë":{"x_min":146,"x_max":585,"ha":731,"o":"m 585 621 l 292 621 l 292 439 l 548 439 l 548 329 l 292 329 l 292 110 l 585 110 l 585 0 l 146 0 l 146 731 l 585 731 l 585 621 m 164 841 l 164 987 l 310 987 l 310 841 l 164 841 m 420 987 l 566 987 l 566 841 l 420 841 l 420 987 "},"ƒ":{"x_min":147,"x_max":622,"ha":731,"o":"m 402 73 q 374 -36 396 9 q 182 -146 319 -146 l 182 -36 q 256 36 256 -31 l 256 365 l 147 365 l 147 475 l 256 475 l 256 511 q 365 703 256 648 q 475 731 411 725 l 622 731 l 622 621 l 475 621 q 402 548 407 621 l 402 475 l 622 475 l 622 365 l 402 365 l 402 73 "},"Î":{"x_min":146,"x_max":584,"ha":731,"o":"m 182 950 l 328 1170 l 401 1170 l 548 950 l 438 950 l 365 1078 l 292 950 l 182 950 m 584 767 l 438 767 l 438 110 l 584 110 l 584 0 l 146 0 l 146 110 l 292 110 l 292 767 l 146 767 l 146 877 l 584 877 l 584 767 "},"e":{"x_min":146,"x_max":585,"ha":731,"o":"m 585 621 l 292 621 l 292 439 l 548 439 l 548 329 l 292 329 l 292 110 l 585 110 l 585 0 l 146 0 l 146 731 l 585 731 l 585 621 "},"Ã":{"x_min":109,"x_max":621,"ha":731,"o":"m 158 1028 q 183 1103 158 1070 q 273 1144 216 1144 q 381 1089 324 1144 q 455 1034 439 1034 q 487 1065 487 1034 l 487 1107 l 571 1107 l 571 1065 q 545 990 571 1023 q 455 950 512 950 q 345 1005 403 950 q 271 1060 287 1060 q 240 1028 240 1060 l 240 987 l 158 987 l 158 1028 m 438 877 l 621 109 l 621 0 l 475 0 l 475 109 l 443 292 l 286 292 l 255 109 l 255 0 l 109 0 l 109 109 l 291 877 l 438 877 m 304 402 l 425 402 l 364 767 l 304 402 "},"J":{"x_min":109,"x_max":621,"ha":731,"o":"m 146 877 l 621 877 l 621 219 q 593 109 615 155 q 401 0 538 0 l 328 0 q 218 27 264 3 q 109 219 109 82 l 109 255 l 255 255 l 255 182 q 328 110 260 110 l 401 110 q 475 183 475 115 l 475 767 l 146 767 l 146 877 "},"»":{"x_min":109.421875,"x_max":621.6875,"ha":731,"o":"m 329 621 l 438 621 l 621 365 l 438 110 l 329 110 l 512 365 l 329 621 m 109 621 l 219 621 l 402 365 l 219 110 l 109 110 l 292 365 l 109 621 "},"∆":{"x_min":109,"x_max":621,"ha":731,"o":"m 438 877 l 621 110 l 621 0 l 109 0 l 109 110 l 291 877 l 438 877 m 255 109 l 474 109 l 364 767 l 255 109 "},"‐":{"x_min":109,"x_max":621,"ha":731,"o":"m 109 420 l 621 420 l 621 311 l 109 311 l 109 420 "},"©":{"x_min":36,"x_max":694,"ha":731,"o":"m 365 877 q 598 781 502 877 q 694 548 694 685 q 598 314 694 410 q 365 219 502 219 q 131 314 227 219 q 36 548 36 410 q 131 781 36 685 q 365 877 227 877 m 365 292 q 546 366 471 292 q 621 548 621 441 q 546 729 621 654 q 365 804 471 804 q 183 729 258 804 q 109 548 109 654 q 183 366 109 441 q 365 292 258 292 m 493 584 l 420 584 l 420 602 q 383 639 420 637 l 346 639 q 310 602 311 639 l 310 493 q 346 457 310 458 l 383 457 q 420 493 418 457 l 420 511 l 493 511 q 383 402 493 409 l 346 402 q 237 511 244 402 l 237 584 q 346 694 237 686 l 383 694 q 493 584 485 694 "},"≥":{"x_min":109,"x_max":621,"ha":731,"o":"m 109 731 l 621 491 l 621 418 l 109 171 l 109 292 l 500 455 l 109 610 l 109 731 m 621 110 l 621 0 l 109 0 l 109 110 l 621 110 "},"ò":{"x_min":109,"x_max":621,"ha":731,"o":"m 401 731 q 593 621 538 731 q 621 511 615 575 l 621 219 q 511 27 621 82 q 401 0 465 5 l 328 0 q 136 109 191 0 q 109 219 112 155 l 109 511 q 218 703 109 648 q 328 731 264 727 l 401 731 m 475 183 l 475 548 q 401 621 475 615 l 328 621 q 255 548 260 621 l 255 183 q 328 110 255 115 l 401 110 q 475 183 469 110 m 236 1023 l 346 1023 l 419 804 l 310 804 l 236 1023 "},"^":{"x_min":146,"x_max":584.59375,"ha":731,"o":"m 146 219 l 328 512 l 401 512 l 584 219 l 475 219 l 365 402 l 255 219 l 146 219 "},"«":{"x_min":109,"x_max":621.21875,"ha":731,"o":"m 401 621 l 218 365 l 401 110 l 291 110 l 109 365 l 291 621 l 401 621 m 621 621 l 438 365 l 621 110 l 511 110 l 328 365 l 511 621 l 621 621 "},"D":{"x_min":109,"x_max":621,"ha":731,"o":"m 401 877 q 593 767 538 877 q 621 657 615 721 l 621 219 q 511 27 621 82 q 401 0 465 5 l 109 0 l 109 877 l 401 877 m 475 183 l 475 694 q 401 767 475 761 l 255 767 l 255 110 l 401 110 q 475 183 469 110 "},"∙":{"x_min":292,"x_max":438,"ha":731,"o":"m 438 439 l 438 292 l 292 292 l 292 439 l 438 439 "},"ł":{"x_min":111,"x_max":629,"ha":731,"o":"m 336 110 l 629 110 l 629 0 l 190 0 l 190 317 l 120 305 l 111 362 l 190 376 l 190 731 l 336 731 l 336 401 l 471 425 l 480 369 l 336 343 l 336 110 "},"ÿ":{"x_min":109,"x_max":621,"ha":731,"o":"m 475 731 l 621 731 l 621 621 l 438 219 l 438 0 l 292 0 l 292 219 l 109 621 l 109 731 l 255 731 l 255 621 l 365 328 l 475 621 l 475 731 m 164 841 l 164 987 l 310 987 l 310 841 l 164 841 m 420 987 l 566 987 l 566 841 l 420 841 l 420 987 "},"Ł":{"x_min":105.0625,"x_max":623,"ha":731,"o":"m 330 110 l 623 110 l 623 0 l 184 0 l 184 317 l 114 305 l 105 361 l 184 376 l 184 877 l 330 877 l 330 401 l 465 425 l 474 369 l 330 343 l 330 110 "},"í":{"x_min":146,"x_max":584,"ha":731,"o":"m 584 621 l 438 621 l 438 110 l 584 110 l 584 0 l 146 0 l 146 110 l 292 110 l 292 621 l 146 621 l 146 731 l 584 731 l 584 621 m 493 1023 l 420 804 l 310 804 l 383 1023 l 493 1023 "},"ˆ":{"x_min":183,"x_max":548.5,"ha":731,"o":"m 183 804 l 329 1023 l 402 1023 l 548 804 l 438 804 l 365 932 l 292 804 l 183 804 "},"w":{"x_min":109,"x_max":621,"ha":731,"o":"m 475 731 l 621 731 l 621 621 l 548 109 l 548 0 l 438 0 l 438 73 l 365 219 l 292 73 l 292 0 l 182 0 l 182 109 l 109 621 l 109 731 l 255 731 l 255 621 l 278 288 l 365 438 l 451 288 l 475 621 l 475 731 "},"$":{"x_min":109,"x_max":620.6875,"ha":731,"o":"m 620 512 l 474 512 l 474 548 q 401 621 474 615 l 328 621 q 255 548 260 621 l 255 511 q 328 439 255 444 l 401 439 q 593 329 538 439 q 620 219 615 283 q 593 109 615 155 q 401 0 538 0 l 394 0 l 394 -73 l 336 -73 l 336 0 l 328 0 q 218 27 264 3 q 109 219 109 82 l 109 255 l 255 255 l 255 182 q 328 110 260 110 l 401 110 q 474 183 474 115 l 474 256 q 401 329 474 323 l 328 329 q 136 420 191 329 q 109 511 112 458 l 109 548 q 218 707 109 661 q 328 731 264 727 l 336 731 l 336 804 l 394 804 l 394 731 l 401 731 q 593 621 538 731 q 620 512 615 575 "},"∫":{"x_min":109,"x_max":621,"ha":731,"o":"m 438 0 q 218 -146 421 -146 l 109 -146 l 109 -36 l 218 -36 q 292 37 292 -30 l 292 657 q 401 849 292 794 q 511 877 447 871 l 621 877 l 621 767 l 511 767 q 438 693 443 767 l 438 0 "},"\\":{"x_min":109,"x_max":621,"ha":731,"o":"m 219 767 l 621 36 l 621 -73 l 511 -73 l 511 37 l 109 768 l 109 877 l 219 877 l 219 767 "},"Ì":{"x_min":146,"x_max":584,"ha":731,"o":"m 237 1170 l 347 1170 l 420 951 l 310 951 l 237 1170 m 584 767 l 438 767 l 438 110 l 584 110 l 584 0 l 146 0 l 146 110 l 292 110 l 292 767 l 146 767 l 146 877 l 584 877 l 584 767 "},"µ":{"x_min":109,"x_max":621,"ha":731,"o":"m 475 731 l 621 731 l 621 0 l 511 0 l 474 110 q 364 0 474 7 l 328 0 q 255 12 297 0 l 255 -292 l 109 -292 l 109 731 l 255 731 l 255 182 q 328 109 255 115 l 401 109 q 475 182 469 109 l 475 731 "},"Ç":{"x_min":109,"x_max":621,"ha":731,"o":"m 621 657 l 621 621 l 475 621 l 475 694 q 401 767 475 761 l 328 767 q 255 694 260 767 l 255 183 q 328 110 255 115 l 401 110 q 475 182 469 110 l 475 255 l 621 255 l 621 219 q 511 27 621 82 q 401 0 465 3 l 328 0 q 136 109 191 0 q 109 219 114 155 l 109 657 q 218 849 109 794 q 328 877 264 871 l 401 877 q 593 767 538 877 q 621 657 615 721 m 420 0 l 420 -73 q 273 -219 409 -219 l 236 -219 l 236 -109 l 310 -109 l 310 0 l 420 0 "},"’":{"x_min":292,"x_max":438.203125,"ha":731,"o":"m 292 875 l 438 875 l 328 583 l 292 583 l 292 875 "},"-":{"x_min":109,"x_max":621,"ha":731,"o":"m 109 420 l 621 420 l 621 311 l 109 311 l 109 420 "},"Q":{"x_min":109,"x_max":621,"ha":731,"o":"m 401 874 q 593 764 538 874 q 621 654 615 718 l 621 215 q 449 0 621 43 l 511 -150 l 364 -150 l 306 -1 q 185 43 235 5 q 109 215 109 100 l 109 654 q 218 846 109 791 q 328 874 264 868 l 401 874 m 475 179 l 475 690 q 401 764 475 758 l 328 764 q 255 690 260 764 l 255 179 q 328 106 255 109 l 401 106 q 475 179 469 106 "},"M":{"x_min":109,"x_max":621,"ha":731,"o":"m 437 877 l 621 877 l 621 0 l 475 0 l 475 732 l 364 292 l 255 731 l 255 0 l 109 0 l 109 877 l 291 877 l 364 584 l 437 877 "},"C":{"x_min":109,"x_max":621,"ha":731,"o":"m 621 657 l 621 621 l 475 621 l 475 694 q 401 767 475 761 l 328 767 q 255 694 260 767 l 255 183 q 328 110 255 115 l 401 110 q 475 182 469 110 l 475 255 l 621 255 l 621 219 q 511 27 621 82 q 401 0 465 3 l 328 0 q 136 109 191 0 q 109 219 114 155 l 109 657 q 218 849 109 794 q 328 877 264 871 l 401 877 q 593 767 538 877 q 621 657 615 721 "},"œ":{"x_min":110,"x_max":1317,"ha":1462,"o":"m 1317 621 l 1024 621 l 1024 439 l 1280 439 l 1280 329 l 1024 329 l 1024 110 l 1317 110 l 1317 0 l 878 0 l 878 731 l 1317 731 l 1317 621 m 402 731 q 593 621 538 731 q 621 511 615 575 l 621 219 q 511 27 621 82 q 402 0 465 5 l 329 0 q 137 109 192 0 q 110 219 115 155 l 110 511 q 219 703 110 648 q 329 731 265 727 l 402 731 m 475 183 l 475 548 q 402 621 475 615 l 329 621 q 256 548 261 621 l 256 183 q 329 110 256 115 l 402 110 q 475 183 469 110 "},"!":{"x_min":292,"x_max":439,"ha":731,"o":"m 292 877 l 439 877 l 439 730 l 402 292 l 329 292 l 292 730 l 292 877 m 292 0 l 292 146 l 439 146 l 439 0 l 292 0 "},"ç":{"x_min":109,"x_max":621,"ha":731,"o":"m 621 511 l 621 475 l 475 475 l 475 548 q 401 621 475 615 l 328 621 q 255 548 260 621 l 255 183 q 328 110 255 115 l 401 110 q 475 182 469 110 l 475 255 l 621 255 l 621 219 q 511 27 621 82 q 401 0 465 3 l 328 0 q 136 109 191 0 q 109 219 112 155 l 109 511 q 218 703 109 648 q 328 731 264 725 l 401 731 q 593 621 538 731 q 621 511 615 575 m 420 0 l 420 -73 q 273 -219 409 -219 l 236 -219 l 236 -109 l 310 -109 l 310 0 l 420 0 "},"È":{"x_min":146,"x_max":585,"ha":731,"o":"m 237 1170 l 347 1170 l 420 951 l 310 951 l 237 1170 m 585 767 l 292 767 l 292 512 l 548 512 l 548 402 l 292 402 l 292 110 l 585 110 l 585 0 l 146 0 l 146 877 l 585 877 l 585 767 "},"{":{"x_min":147,"x_max":549,"ha":731,"o":"m 403 548 q 313 365 403 436 q 403 183 403 294 l 403 37 q 476 -36 408 -36 l 549 -36 l 549 -146 l 476 -146 q 366 -118 412 -142 q 257 73 257 -63 l 257 255 q 183 329 251 329 l 147 329 l 147 402 l 183 402 q 257 475 251 402 l 257 657 q 366 849 257 794 q 476 877 412 871 l 549 877 l 549 767 l 476 767 q 403 694 408 767 l 403 548 "},"X":{"x_min":109,"x_max":621,"ha":731,"o":"m 621 877 l 621 767 l 483 438 l 621 109 l 621 0 l 475 0 l 475 109 l 365 402 l 255 109 l 255 0 l 109 0 l 109 109 l 246 438 l 109 767 l 109 877 l 255 877 l 255 767 l 365 475 l 475 767 l 475 877 l 621 877 "},"ô":{"x_min":109,"x_max":621,"ha":731,"o":"m 401 731 q 593 621 538 731 q 621 511 615 575 l 621 219 q 511 27 621 82 q 401 0 465 5 l 328 0 q 136 109 191 0 q 109 219 112 155 l 109 511 q 218 703 109 648 q 328 731 264 727 l 401 731 m 475 183 l 475 548 q 401 621 475 615 l 328 621 q 255 548 260 621 l 255 183 q 328 110 255 115 l 401 110 q 475 183 469 110 m 182 804 l 328 1023 l 401 1023 l 547 804 l 437 804 l 364 932 l 291 804 l 182 804 "},"¼":{"x_min":86.328125,"x_max":645.21875,"ha":731,"o":"m 603 717 l 645 676 l 128 158 l 86 200 l 603 717 m 256 567 l 329 567 l 329 512 l 110 512 l 110 567 l 183 567 l 183 804 l 110 804 l 110 858 l 256 877 l 256 567 m 621 128 l 621 73 l 585 73 l 585 0 l 512 0 l 512 73 l 347 73 l 346 128 l 511 366 l 585 366 l 585 128 l 621 128 m 402 128 l 512 128 l 512 292 l 402 128 "},"#":{"x_min":109,"x_max":621,"ha":731,"o":"m 621 512 l 520 512 l 501 365 l 621 365 l 621 292 l 492 292 l 474 146 l 400 146 l 419 292 l 273 292 l 255 146 l 182 146 l 200 292 l 109 292 l 109 365 l 209 365 l 227 512 l 109 512 l 109 585 l 237 585 l 255 731 l 328 731 l 310 585 l 455 585 l 474 731 l 547 731 l 529 585 l 621 585 l 621 512 m 428 365 l 446 512 l 301 512 l 283 365 l 428 365 "},"Ê":{"x_min":146,"x_max":585,"ha":731,"o":"m 182 950 l 328 1170 l 401 1170 l 548 950 l 438 950 l 365 1078 l 292 950 l 182 950 m 585 767 l 292 767 l 292 512 l 548 512 l 548 402 l 292 402 l 292 110 l 585 110 l 585 0 l 146 0 l 146 877 l 585 877 l 585 767 "},")":{"x_min":183,"x_max":549,"ha":731,"o":"m 329 877 q 439 849 393 871 q 549 657 549 794 l 549 73 q 439 -118 549 -63 q 329 -146 393 -140 l 183 -146 l 183 -36 l 329 -36 q 403 37 397 -36 l 403 694 q 329 767 397 767 l 183 767 l 183 877 l 329 877 "},"Å":{"x_min":109,"x_max":621,"ha":731,"o":"m 365 1170 q 442 1137 410 1170 q 475 1060 475 1105 q 442 982 475 1014 q 365 950 410 950 q 287 982 319 950 q 255 1060 255 1014 q 287 1137 255 1105 q 365 1170 319 1170 m 365 1005 q 403 1021 387 1005 q 420 1060 420 1038 q 403 1098 420 1082 q 365 1115 387 1115 q 326 1098 343 1115 q 310 1060 310 1082 q 326 1021 310 1038 q 365 1005 343 1005 m 438 877 l 621 109 l 621 0 l 474 0 l 474 109 l 443 292 l 286 292 l 255 109 l 255 0 l 109 0 l 109 109 l 291 877 l 438 877 m 304 402 l 425 402 l 364 767 l 304 402 "},"Δ":{"x_min":109,"x_max":621,"ha":731,"o":"m 438 877 l 621 110 l 621 0 l 109 0 l 109 110 l 291 877 l 438 877 m 255 109 l 474 109 l 364 767 l 255 109 "},"ø":{"x_min":109,"x_max":621,"ha":731,"o":"m 543 683 q 621 511 621 625 l 621 219 q 511 27 621 82 q 401 0 465 5 l 328 0 q 235 19 288 0 l 205 -44 l 153 -20 l 185 47 q 109 218 109 105 l 109 511 q 218 703 109 648 q 328 731 264 727 l 401 731 q 494 710 441 731 l 523 774 l 576 751 l 543 683 m 255 547 l 255 195 l 447 608 q 401 621 429 621 l 328 621 q 255 547 260 621 m 402 110 q 475 183 469 110 l 475 531 l 283 122 q 329 110 301 110 l 402 110 "},"â":{"x_min":109,"x_max":621,"ha":731,"o":"m 438 731 l 621 109 l 621 0 l 475 0 l 475 109 l 451 219 l 278 219 l 255 109 l 255 0 l 109 0 l 109 109 l 291 731 l 438 731 m 302 329 l 426 329 l 364 621 l 302 329 m 182 804 l 328 1023 l 401 1023 l 547 804 l 437 804 l 364 932 l 291 804 l 182 804 "},"}":{"x_min":147,"x_max":549.046875,"ha":731,"o":"m 293 548 l 293 694 q 220 767 287 767 l 147 767 l 147 877 l 220 877 q 329 849 283 871 q 439 657 439 794 l 439 475 q 512 402 444 402 l 549 402 l 549 329 l 512 329 q 439 255 444 329 l 439 73 q 329 -118 439 -63 q 220 -146 283 -142 l 147 -146 l 147 -36 l 220 -36 q 293 37 287 -36 l 293 183 q 382 365 293 294 q 293 548 293 436 "},"‰":{"x_min":87,"x_max":624,"ha":731,"o":"m 494 694 l 536 654 l 128 246 l 87 287 l 494 694 m 294 255 q 371 221 339 255 q 403 143 403 188 l 403 111 q 371 33 403 66 q 294 0 339 0 q 216 33 249 0 q 184 111 184 66 l 184 143 q 216 221 184 188 q 294 255 249 255 m 341 95 l 341 159 q 326 192 341 177 q 294 207 312 207 q 261 192 274 207 q 248 159 248 177 l 248 95 q 261 61 248 75 q 294 48 274 48 q 326 61 312 48 q 341 95 341 75 m 514 473 q 592 440 560 473 q 624 361 624 407 l 624 330 q 592 251 624 284 q 514 219 560 219 q 435 251 468 219 q 403 330 403 284 l 403 361 q 435 440 403 407 q 514 473 468 473 m 562 314 l 562 377 q 547 410 562 395 q 514 425 532 425 q 480 410 494 425 q 467 377 467 395 l 467 314 q 480 280 467 294 q 514 267 494 267 q 547 280 532 267 q 562 314 562 294 m 239 585 q 148 622 185 585 q 111 712 111 659 l 111 749 q 148 839 111 802 q 239 877 185 877 q 329 839 292 877 q 367 749 367 802 l 367 712 q 329 622 367 659 q 239 585 292 585 m 184 767 l 184 694 q 200 656 184 672 q 239 640 217 640 q 277 656 261 640 q 294 694 294 672 l 294 767 q 277 805 294 789 q 239 822 261 822 q 200 805 217 822 q 184 767 184 789 "},"Ä":{"x_min":109,"x_max":621,"ha":731,"o":"m 164 987 l 164 1133 l 310 1133 l 310 987 l 164 987 m 420 1133 l 566 1133 l 566 987 l 420 987 l 420 1133 m 438 877 l 621 109 l 621 0 l 475 0 l 475 109 l 443 292 l 286 292 l 255 109 l 255 0 l 109 0 l 109 109 l 291 877 l 438 877 m 304 402 l 425 402 l 364 767 l 304 402 "},"⋲":{"x_min":110,"x_max":616,"ha":731,"o":"m 110 454 q 137 535 110 500 q 236 579 172 579 q 389 517 285 579 q 491 470 468 470 q 512 491 512 470 l 512 543 l 616 543 l 616 491 q 588 409 616 444 q 491 366 553 366 q 335 427 439 366 q 234 475 256 475 q 212 453 213 475 l 212 402 l 110 402 l 110 454 m 110 235 q 137 316 110 281 q 236 360 172 360 q 389 297 285 360 q 491 250 468 250 q 512 271 512 250 l 512 323 l 616 323 l 616 271 q 588 189 616 224 q 491 146 553 146 q 335 208 439 146 q 234 256 256 256 q 212 234 213 256 l 212 183 l 110 183 l 110 235 "},"¸":{"x_min":238,"x_max":421,"ha":731,"o":"m 421 0 l 421 -73 q 274 -219 410 -219 l 238 -219 l 238 -109 l 311 -109 l 311 0 l 421 0 "},"a":{"x_min":109,"x_max":621,"ha":731,"o":"m 438 731 l 621 109 l 621 0 l 475 0 l 475 109 l 451 219 l 278 219 l 255 109 l 255 0 l 109 0 l 109 109 l 291 731 l 438 731 m 302 329 l 426 329 l 364 621 l 302 329 "},"—":{"x_min":36,"x_max":693.90625,"ha":731,"o":"m 36 420 l 693 420 l 693 311 l 36 311 l 36 420 "},"=":{"x_min":109,"x_max":621,"ha":731,"o":"m 109 548 l 621 548 l 621 438 l 109 438 l 109 548 m 109 183 l 109 293 l 621 293 l 621 183 l 109 183 "},"N":{"x_min":109,"x_max":621,"ha":731,"o":"m 475 877 l 621 877 l 621 0 l 475 0 l 475 109 l 255 548 l 255 0 l 109 0 l 109 877 l 255 877 l 255 766 l 475 328 l 475 877 "},"˚":{"x_min":256,"x_max":475,"ha":731,"o":"m 365 1023 q 443 991 411 1023 q 475 913 475 959 q 443 835 475 867 q 365 804 411 804 q 287 835 319 804 q 256 913 256 867 q 287 991 256 959 q 365 1023 319 1023 m 365 859 q 403 875 387 859 q 420 913 420 891 q 403 951 420 935 q 365 968 387 968 q 327 951 343 968 q 311 913 311 935 q 327 875 311 891 q 365 859 343 859 "},"ú":{"x_min":109,"x_max":621,"ha":731,"o":"m 475 731 l 621 731 l 621 219 q 511 27 621 82 q 401 0 465 5 l 328 0 q 136 109 191 0 q 109 219 112 155 l 109 731 l 255 731 l 255 183 q 328 110 255 115 l 401 110 q 475 183 469 110 l 475 731 m 492 1023 l 419 804 l 310 804 l 383 1023 l 492 1023 "},"2":{"x_min":109,"x_max":621,"ha":731,"o":"m 255 219 l 255 110 l 621 110 l 621 0 l 109 0 l 109 182 q 136 292 114 246 q 328 402 191 402 l 401 402 q 475 475 475 407 l 475 548 q 401 621 469 621 l 328 621 q 255 548 255 615 l 255 475 l 109 475 l 109 511 q 136 621 114 575 q 328 731 191 731 l 401 731 q 511 703 465 725 q 621 511 621 648 q 593 401 615 447 q 401 292 538 292 l 328 292 q 255 219 255 286 "},"ü":{"x_min":109,"x_max":621,"ha":731,"o":"m 475 731 l 621 731 l 621 219 q 511 27 621 82 q 401 0 465 5 l 328 0 q 136 109 191 0 q 109 219 112 155 l 109 731 l 255 731 l 255 183 q 328 110 255 115 l 401 110 q 475 183 469 110 l 475 731 m 164 841 l 164 987 l 310 987 l 310 841 l 164 841 m 420 987 l 566 987 l 566 841 l 420 841 l 420 987 "},"¯":{"x_min":36,"x_max":693.90625,"ha":731,"o":"m 36 877 l 693 877 l 693 768 l 36 768 l 36 877 "},"Z":{"x_min":110,"x_max":585,"ha":731,"o":"m 585 767 l 256 110 l 585 110 l 585 0 l 110 0 l 110 110 l 438 767 l 110 767 l 110 877 l 585 877 l 585 767 "},"u":{"x_min":109,"x_max":621,"ha":731,"o":"m 475 731 l 621 731 l 621 219 q 511 27 621 82 q 401 0 465 5 l 328 0 q 136 109 191 0 q 109 219 114 155 l 109 731 l 255 731 l 255 183 q 328 110 255 115 l 401 110 q 475 183 469 110 l 475 731 "},"":{"x_min":183,"x_max":1353,"ha":1462,"o":"m 622 621 l 329 621 l 329 439 l 585 439 l 585 329 l 329 329 l 329 0 l 183 0 l 183 731 l 622 731 l 622 621 m 1060 110 l 1353 110 l 1353 0 l 914 0 l 914 731 l 1060 731 l 1060 110 "},"˜":{"x_min":159,"x_max":572,"ha":731,"o":"m 159 882 q 184 957 159 924 q 274 998 217 998 q 382 943 325 998 q 456 888 440 888 q 488 919 488 888 l 488 961 l 572 961 l 572 919 q 546 844 572 877 q 456 804 513 804 q 346 859 404 804 q 272 914 288 914 q 241 882 241 914 l 241 841 l 159 841 l 159 882 "},"Ó":{"x_min":109,"x_max":621,"ha":731,"o":"m 492 1170 l 419 951 l 310 951 l 383 1170 l 492 1170 m 401 877 q 593 767 538 877 q 621 657 615 721 l 621 219 q 511 27 621 82 q 401 0 465 5 l 328 0 q 136 109 191 0 q 109 219 114 155 l 109 657 q 218 849 109 794 q 328 877 264 871 l 401 877 m 475 183 l 475 694 q 401 767 475 761 l 328 767 q 255 694 260 767 l 255 183 q 328 110 255 115 l 401 110 q 475 183 469 110 "},"k":{"x_min":109,"x_max":621,"ha":731,"o":"m 621 255 l 621 0 l 475 0 l 475 219 q 401 292 469 292 l 255 292 l 255 0 l 109 0 l 109 731 l 255 731 l 255 402 l 315 402 l 475 621 l 475 731 l 621 731 l 621 619 l 456 396 q 621 255 621 356 "},"ˇ":{"x_min":183,"x_max":548.5,"ha":731,"o":"m 548 1023 l 402 804 l 329 804 l 183 1023 l 292 1023 l 365 895 l 438 1023 l 548 1023 "},"Ù":{"x_min":109,"x_max":621,"ha":731,"o":"m 236 1170 l 346 1170 l 419 951 l 310 951 l 236 1170 m 475 877 l 621 877 l 621 219 q 511 27 621 82 q 401 0 465 5 l 328 0 q 136 109 191 0 q 109 219 112 155 l 109 877 l 255 877 l 255 183 q 328 110 255 115 l 401 110 q 475 183 469 110 l 475 877 "},"Ÿ":{"x_min":109,"x_max":621,"ha":731,"o":"m 164 987 l 164 1133 l 310 1133 l 310 987 l 164 987 m 419 1133 l 566 1133 l 566 987 l 419 987 l 419 1133 m 475 877 l 621 877 l 621 767 l 438 292 l 438 0 l 292 0 l 292 292 l 109 767 l 109 877 l 255 877 l 255 767 l 365 402 l 475 767 l 475 877 "},"¢":{"x_min":109,"x_max":621,"ha":731,"o":"m 475 255 l 475 292 l 621 292 q 511 100 621 155 q 401 73 465 76 l 394 73 l 394 0 l 336 0 l 336 73 l 328 73 q 136 182 191 73 q 109 292 114 228 l 109 439 q 218 630 109 575 q 328 658 264 652 l 336 658 l 336 731 l 394 731 l 394 658 l 401 658 q 593 548 538 658 q 621 438 615 502 l 475 439 l 475 475 q 401 548 475 542 l 328 548 q 255 475 260 548 l 255 256 q 328 183 255 188 l 401 183 q 475 255 469 183 "},"Ω":{"x_min":73,"x_max":658,"ha":731,"o":"m 475 548 q 402 621 469 621 l 329 621 q 256 548 256 615 l 256 183 q 328 110 261 110 l 329 0 l 73 0 l 73 110 l 199 109 q 110 292 110 180 l 110 511 q 137 621 115 575 q 329 731 192 731 l 402 731 q 599 621 549 731 q 621 511 621 575 l 621 292 q 531 109 621 180 l 658 110 l 658 0 l 402 0 l 401 110 q 475 183 469 110 l 475 548 "},"ß":{"x_min":109,"x_max":1351.6875,"ha":1462,"o":"m 328 731 l 401 731 q 593 621 538 731 q 620 512 615 575 l 474 512 l 474 548 q 401 621 474 615 l 328 621 q 255 548 260 621 l 255 511 q 328 439 255 444 l 401 439 q 593 329 538 439 q 620 219 615 283 q 593 109 615 155 q 401 0 538 0 l 328 0 q 218 27 264 3 q 109 219 109 82 l 109 255 l 255 255 l 255 182 q 328 110 260 110 l 401 110 q 474 183 474 115 l 474 256 q 401 329 474 323 l 328 329 q 136 420 191 329 q 109 511 114 458 l 109 548 q 218 707 109 661 q 328 731 264 727 m 1059 731 l 1132 731 q 1324 621 1269 731 q 1351 512 1346 575 l 1205 512 l 1205 548 q 1132 621 1205 615 l 1059 621 q 986 548 991 621 l 986 511 q 1059 439 986 444 l 1132 439 q 1324 329 1269 439 q 1351 219 1346 283 q 1324 109 1346 155 q 1132 0 1269 0 l 1059 0 q 949 27 995 3 q 840 219 840 82 l 840 255 l 986 255 l 986 182 q 1059 110 991 110 l 1132 110 q 1205 183 1205 115 l 1205 256 q 1132 329 1205 323 l 1059 329 q 867 420 922 329 q 840 511 843 458 l 840 548 q 949 707 840 661 q 1059 731 995 727 "},"é":{"x_min":146,"x_max":585,"ha":731,"o":"m 585 621 l 292 621 l 292 439 l 548 439 l 548 329 l 292 329 l 292 110 l 585 110 l 585 0 l 146 0 l 146 731 l 585 731 l 585 621 m 493 1023 l 420 804 l 310 804 l 383 1023 l 493 1023 "},"s":{"x_min":109,"x_max":620.6875,"ha":731,"o":"m 328 731 l 401 731 q 593 621 538 731 q 620 512 615 575 l 474 512 l 474 548 q 401 621 474 615 l 328 621 q 255 548 260 621 l 255 511 q 328 439 255 444 l 401 439 q 593 329 538 439 q 620 219 615 283 q 593 109 615 155 q 401 0 538 0 l 328 0 q 218 27 264 3 q 109 219 109 82 l 109 255 l 255 255 l 255 182 q 328 110 260 110 l 401 110 q 474 183 474 115 l 474 256 q 401 329 474 323 l 328 329 q 136 420 191 329 q 109 511 114 458 l 109 548 q 218 707 109 661 q 328 731 264 727 "},"B":{"x_min":109,"x_max":621,"ha":731,"o":"m 498 486 q 621 292 621 416 l 621 219 q 511 27 621 82 q 401 0 465 5 l 109 0 l 109 877 l 364 877 q 556 767 501 877 q 584 657 578 721 l 584 621 q 498 486 584 526 m 255 767 l 255 512 l 364 512 q 438 584 432 512 l 438 694 q 364 767 438 761 l 255 767 m 475 183 l 475 329 q 401 402 475 396 l 255 402 l 255 110 l 401 110 q 475 183 469 110 "},"…":{"x_min":73,"x_max":657,"ha":731,"o":"m 219 146 l 219 0 l 73 0 l 73 146 l 219 146 m 657 146 l 657 0 l 511 0 l 511 146 l 657 146 m 438 146 l 438 0 l 292 0 l 292 146 l 438 146 "},"?":{"x_min":109,"x_max":621,"ha":731,"o":"m 401 877 q 511 849 465 871 q 621 657 621 794 l 621 584 q 438 368 621 401 l 438 292 l 292 292 l 292 475 l 401 475 q 475 548 475 480 l 475 694 q 401 767 469 767 l 328 767 q 255 694 255 761 l 255 621 l 109 621 l 109 657 q 136 767 114 721 q 328 877 191 877 l 401 877 m 292 0 l 292 146 l 438 146 l 438 0 l 292 0 "},"H":{"x_min":109,"x_max":621,"ha":731,"o":"m 475 877 l 621 877 l 621 0 l 475 0 l 475 402 l 255 402 l 255 0 l 109 0 l 109 877 l 255 877 l 255 512 l 475 512 l 475 877 "},"î":{"x_min":146,"x_max":584,"ha":731,"o":"m 584 621 l 438 621 l 438 110 l 584 110 l 584 0 l 146 0 l 146 110 l 292 110 l 292 621 l 146 621 l 146 731 l 584 731 l 584 621 m 182 804 l 328 1023 l 401 1023 l 548 804 l 438 804 l 365 932 l 292 804 l 182 804 "},"c":{"x_min":109,"x_max":621,"ha":731,"o":"m 621 511 l 621 475 l 475 475 l 475 548 q 401 621 475 615 l 328 621 q 255 548 260 621 l 255 183 q 328 110 255 115 l 401 110 q 475 182 469 110 l 475 255 l 621 255 l 621 219 q 511 27 621 82 q 401 0 465 3 l 328 0 q 136 109 191 0 q 109 219 114 155 l 109 511 q 218 703 109 648 q 328 731 264 725 l 401 731 q 593 621 538 731 q 621 511 615 575 "},"¶":{"x_min":109,"x_max":621,"ha":731,"o":"m 438 -146 l 328 -146 l 328 328 q 218 356 264 334 q 109 548 109 411 l 109 657 q 136 767 112 721 q 328 877 191 877 l 438 877 l 438 -146 m 511 -146 l 511 877 l 621 877 l 621 -146 l 511 -146 "},"−":{"x_min":109,"x_max":621,"ha":731,"o":"m 109 420 l 621 420 l 621 311 l 109 311 l 109 420 "},"≠":{"x_min":109,"x_max":621,"ha":731,"o":"m 621 438 l 442 438 l 397 293 l 621 293 l 621 183 l 362 183 l 328 73 l 218 73 l 253 183 l 109 183 l 109 293 l 286 293 l 332 438 l 109 438 l 109 548 l 366 548 l 401 658 l 511 658 l 476 548 l 621 548 l 621 438 "},"•":{"x_min":256,"x_max":475,"ha":731,"o":"m 475 365 q 443 287 475 319 q 365 256 411 256 q 287 287 319 256 q 256 365 256 319 q 287 443 256 411 q 365 475 319 475 q 443 443 411 475 q 475 365 475 411 "},"¥":{"x_min":109,"x_max":621,"ha":731,"o":"m 621 731 l 621 621 l 465 293 l 584 293 l 584 236 l 443 236 l 438 219 l 438 130 l 584 130 l 584 73 l 438 73 l 438 0 l 292 0 l 292 73 l 146 73 l 146 130 l 292 130 l 292 219 l 286 236 l 146 236 l 146 293 l 264 293 l 109 621 l 109 731 l 255 731 l 255 621 l 365 328 l 475 621 l 475 731 l 621 731 "},"(":{"x_min":183,"x_max":549,"ha":731,"o":"m 402 877 l 549 877 l 549 767 l 402 767 q 329 694 334 767 l 329 37 q 402 -36 334 -36 l 549 -36 l 549 -146 l 402 -146 q 292 -118 338 -140 q 183 73 183 -63 l 183 657 q 292 849 183 794 q 402 877 338 871 "},"U":{"x_min":109,"x_max":621,"ha":731,"o":"m 475 877 l 621 877 l 621 219 q 511 27 621 82 q 401 0 465 5 l 328 0 q 136 109 191 0 q 109 219 114 155 l 109 877 l 255 877 l 255 183 q 328 110 255 115 l 401 110 q 475 183 469 110 l 475 877 "},"◊":{"x_min":109,"x_max":621,"ha":731,"o":"m 438 877 l 621 475 l 621 401 l 438 0 l 291 0 l 109 401 l 109 475 l 291 877 l 438 877 m 365 109 l 475 402 l 475 475 l 365 767 l 255 475 l 255 402 l 365 109 "},"Ñ":{"x_min":109,"x_max":621,"ha":731,"o":"m 158 1028 q 183 1103 158 1070 q 273 1144 216 1144 q 381 1089 324 1144 q 455 1034 439 1034 q 487 1065 487 1034 l 487 1107 l 571 1107 l 571 1065 q 545 990 571 1023 q 455 950 512 950 q 345 1005 403 950 q 271 1060 287 1060 q 240 1028 240 1060 l 240 987 l 158 987 l 158 1028 m 475 877 l 621 877 l 621 0 l 475 0 l 475 109 l 255 548 l 255 0 l 109 0 l 109 877 l 255 877 l 255 766 l 475 328 l 475 877 "},"F":{"x_min":146,"x_max":585,"ha":731,"o":"m 585 767 l 292 767 l 292 512 l 548 512 l 548 402 l 292 402 l 292 0 l 146 0 l 146 877 l 585 877 l 585 767 "},"­":{"x_min":109,"x_max":621,"ha":731,"o":"m 109 420 l 621 420 l 621 311 l 109 311 l 109 420 "},":":{"x_min":292,"x_max":438,"ha":731,"o":"m 438 146 l 438 0 l 292 0 l 292 146 l 438 146 m 438 658 l 438 512 l 292 512 l 292 658 l 438 658 "},"Û":{"x_min":109,"x_max":621,"ha":731,"o":"m 182 950 l 328 1170 l 401 1170 l 547 950 l 437 950 l 364 1078 l 291 950 l 182 950 m 475 877 l 621 877 l 621 219 q 511 27 621 82 q 401 0 465 5 l 328 0 q 136 109 191 0 q 109 219 112 155 l 109 877 l 255 877 l 255 183 q 328 110 255 115 l 401 110 q 475 183 469 110 l 475 877 "},"*":{"x_min":150,"x_max":583.109375,"ha":731,"o":"m 583 698 l 416 643 l 518 502 l 469 466 l 365 606 l 263 466 l 214 502 l 316 643 l 150 698 l 169 755 l 335 701 l 335 877 l 397 877 l 397 702 l 562 756 l 583 698 "},"†":{"x_min":73,"x_max":659,"ha":731,"o":"m 73 473 l 329 693 l 402 693 l 659 473 l 659 363 l 549 363 l 549 436 l 421 564 l 421 35 l 311 35 l 311 564 l 183 436 l 183 363 l 73 363 l 73 473 "},"°":{"x_min":237,"x_max":493,"ha":731,"o":"m 383 877 q 493 767 485 877 l 493 730 q 383 621 493 628 l 346 621 q 237 730 244 621 l 237 767 q 346 877 237 869 l 383 877 m 420 712 l 420 785 q 383 822 420 820 l 346 822 q 310 785 311 822 l 310 712 q 346 676 310 677 l 383 676 q 420 712 418 676 "},"V":{"x_min":109,"x_max":621,"ha":731,"o":"m 621 767 l 438 0 l 291 0 l 109 767 l 109 877 l 255 877 l 255 767 l 365 109 l 475 767 l 475 877 l 621 877 l 621 767 "},"å":{"x_min":109,"x_max":621,"ha":731,"o":"m 438 731 l 621 109 l 621 0 l 475 0 l 475 109 l 451 219 l 278 219 l 255 109 l 255 0 l 109 0 l 109 109 l 291 731 l 438 731 m 302 329 l 426 329 l 364 621 l 302 329 m 364 1023 q 442 991 410 1023 q 474 913 474 959 q 442 835 474 867 q 364 804 410 804 q 287 835 319 804 q 255 913 255 867 q 287 991 255 959 q 364 1023 319 1023 m 365 859 q 403 875 387 859 q 420 913 420 891 q 403 951 420 935 q 365 968 387 968 q 326 951 343 968 q 310 913 310 935 q 326 875 310 891 q 365 859 343 859 "}," ":{"x_min":0,"x_max":0,"ha":731},"0":{"x_min":109,"x_max":621,"ha":731,"o":"m 365 731 q 546 656 471 731 q 621 475 621 581 l 621 255 q 546 74 621 149 q 365 0 471 0 q 183 74 258 0 q 109 255 109 149 l 109 475 q 183 656 109 581 q 365 731 258 731 m 475 219 l 475 511 q 442 589 475 557 q 365 621 410 621 q 287 589 319 621 q 255 511 255 557 l 255 219 q 287 141 255 173 q 365 110 319 110 q 442 141 410 110 q 475 219 475 173 "},"":{"x_min":73,"x_max":694,"ha":731,"o":"m 73 0 l 73 877 l 219 877 l 219 292 l 365 438 l 365 292 l 512 438 l 512 292 l 658 438 l 658 0 l 73 0 m 292 841 l 694 841 l 694 548 l 292 548 l 292 841 m 566 621 l 566 694 l 530 657 l 530 694 l 493 657 l 493 694 l 456 657 l 456 768 l 420 768 l 420 621 l 566 621 "},"”":{"x_min":164,"x_max":566.046875,"ha":731,"o":"m 164 875 l 310 875 l 200 583 l 164 583 l 164 875 m 419 875 l 566 875 l 456 583 l 419 583 l 419 875 "},"¾":{"x_min":86.328125,"x_max":645.21875,"ha":731,"o":"m 603 717 l 645 676 l 128 158 l 86 200 l 603 717 m 307 703 q 365 621 365 678 q 255 512 357 512 l 219 512 q 110 621 110 519 l 110 639 l 183 639 l 183 603 q 219 567 184 567 l 255 567 q 292 603 292 568 l 292 639 q 255 676 290 676 l 201 676 l 201 731 l 255 731 q 292 767 292 732 l 292 785 q 255 822 290 822 l 219 822 q 183 785 183 820 l 183 749 l 110 749 l 110 767 q 219 877 117 877 l 255 877 q 365 785 357 877 l 365 767 q 307 703 365 709 m 621 128 l 621 73 l 585 73 l 585 0 l 512 0 l 512 73 l 347 73 l 346 128 l 511 366 l 585 366 l 585 128 l 621 128 m 402 128 l 512 128 l 512 292 l 402 128 "},"@":{"x_min":73,"x_max":658,"ha":731,"o":"m 475 731 q 658 548 658 718 l 658 182 q 475 0 645 0 l 365 0 l 328 73 q 255 0 323 0 q 73 182 85 0 l 73 329 q 256 512 85 512 l 439 512 l 439 110 l 475 110 q 548 183 548 115 l 548 548 q 474 621 542 621 l 73 621 l 73 731 l 475 731 m 329 146 l 329 402 l 256 402 q 183 329 188 402 l 183 183 q 256 110 183 115 l 292 110 q 329 146 325 110 "},"ö":{"x_min":109,"x_max":621,"ha":731,"o":"m 401 731 q 593 621 538 731 q 621 511 615 575 l 621 219 q 511 27 621 82 q 401 0 465 5 l 328 0 q 136 109 191 0 q 109 219 112 155 l 109 511 q 218 703 109 648 q 328 731 264 727 l 401 731 m 475 183 l 475 548 q 401 621 475 615 l 328 621 q 255 548 260 621 l 255 183 q 328 110 255 115 l 401 110 q 475 183 469 110 m 164 841 l 164 987 l 310 987 l 310 841 l 164 841 m 420 987 l 566 987 l 566 841 l 420 841 l 420 987 "},"i":{"x_min":146,"x_max":584,"ha":731,"o":"m 584 621 l 438 621 l 438 110 l 584 110 l 584 0 l 146 0 l 146 110 l 292 110 l 292 621 l 146 621 l 146 731 l 584 731 l 584 621 "},"≤":{"x_min":109,"x_max":621,"ha":731,"o":"m 621 731 l 621 610 l 229 455 l 621 292 l 621 171 l 109 418 l 109 491 l 621 731 m 109 110 l 621 110 l 621 0 l 109 0 l 109 110 "},"Õ":{"x_min":109,"x_max":621,"ha":731,"o":"m 158 1028 q 183 1103 158 1070 q 273 1144 216 1144 q 381 1089 324 1144 q 455 1034 439 1034 q 487 1065 487 1034 l 487 1107 l 571 1107 l 571 1065 q 545 990 571 1023 q 455 950 512 950 q 345 1005 403 950 q 271 1060 287 1060 q 240 1028 240 1060 l 240 987 l 158 987 l 158 1028 m 401 877 q 593 767 538 877 q 621 657 615 721 l 621 219 q 511 27 621 82 q 401 0 465 5 l 328 0 q 136 109 191 0 q 109 219 114 155 l 109 657 q 218 849 109 794 q 328 877 264 871 l 401 877 m 475 183 l 475 694 q 401 767 475 761 l 328 767 q 255 694 260 767 l 255 183 q 328 110 255 115 l 401 110 q 475 183 469 110 "},"þ":{"x_min":109,"x_max":621,"ha":731,"o":"m 401 585 q 593 475 538 585 q 621 365 615 429 q 511 173 621 228 q 401 146 465 149 l 255 146 l 255 0 l 109 0 l 109 731 l 255 731 l 255 585 l 401 585 m 475 329 l 475 402 q 401 475 475 469 l 255 475 l 255 256 l 401 256 q 475 329 469 256 "},"]":{"x_min":183,"x_max":549,"ha":731,"o":"m 183 877 l 549 877 l 549 -146 l 183 -146 l 183 -36 l 403 -36 l 403 767 l 183 767 l 183 877 "},"m":{"x_min":109,"x_max":621,"ha":731,"o":"m 438 731 l 621 731 l 621 0 l 475 0 l 475 584 l 364 146 l 255 584 l 255 0 l 109 0 l 109 731 l 291 731 l 364 438 l 438 731 "},"8":{"x_min":109,"x_max":621,"ha":731,"o":"m 621 621 q 503 458 621 502 q 621 292 621 403 l 621 219 q 593 109 615 155 q 401 0 538 0 l 328 0 q 136 109 191 0 q 109 219 114 155 l 109 292 q 225 458 109 403 q 109 621 109 502 l 109 657 q 218 849 109 794 q 328 877 264 871 l 401 877 q 511 849 465 871 q 621 657 621 794 l 621 621 m 475 183 l 475 329 q 401 402 469 402 l 328 402 q 255 329 260 402 l 255 183 q 328 110 255 115 l 401 110 q 475 183 475 115 m 475 584 l 475 694 q 401 767 469 767 l 328 767 q 255 694 260 767 l 255 584 q 328 512 255 517 l 401 512 q 475 584 475 517 "},"ž":{"x_min":110,"x_max":585.140625,"ha":731,"o":"m 585 621 l 256 110 l 585 110 l 585 0 l 110 0 l 110 110 l 439 621 l 110 621 l 110 731 l 585 731 l 585 621 m 548 1023 l 402 804 l 329 804 l 183 1023 l 292 1023 l 365 895 l 438 1023 l 548 1023 "},"R":{"x_min":109,"x_max":621,"ha":731,"o":"m 621 621 q 456 407 621 453 l 621 109 l 621 0 l 475 0 l 475 109 l 315 401 l 255 402 l 255 0 l 109 0 l 109 877 l 401 877 q 593 767 538 877 q 621 657 615 721 l 621 621 m 475 584 l 475 694 q 401 767 475 761 l 255 767 l 255 512 l 401 512 q 475 584 469 512 "},"á":{"x_min":109,"x_max":621,"ha":731,"o":"m 438 731 l 621 109 l 621 0 l 475 0 l 475 109 l 451 219 l 278 219 l 255 109 l 255 0 l 109 0 l 109 109 l 291 731 l 438 731 m 302 329 l 426 329 l 364 621 l 302 329 m 492 1023 l 419 804 l 310 804 l 383 1023 l 492 1023 "},"×":{"x_min":146.375,"x_max":584.21875,"ha":731,"o":"m 507 584 l 584 508 l 441 365 l 584 222 l 507 146 l 365 288 l 222 146 l 146 222 l 288 365 l 146 508 l 222 585 l 365 442 l 507 584 "},"o":{"x_min":109,"x_max":621,"ha":731,"o":"m 401 731 q 593 621 538 731 q 621 511 615 575 l 621 219 q 511 27 621 82 q 401 0 465 5 l 328 0 q 136 109 191 0 q 109 219 114 155 l 109 511 q 218 703 109 648 q 328 731 264 727 l 401 731 m 475 183 l 475 548 q 401 621 475 615 l 328 621 q 255 548 260 621 l 255 183 q 328 110 255 115 l 401 110 q 475 183 469 110 "},"5":{"x_min":109,"x_max":621,"ha":731,"o":"m 621 621 l 255 621 l 255 402 l 401 402 q 593 292 538 402 q 621 182 615 246 l 621 73 q 593 -36 615 9 q 401 -146 538 -146 l 328 -146 q 218 -118 264 -142 q 109 73 109 -63 l 109 109 l 255 109 l 255 36 q 328 -36 260 -36 l 401 -36 q 475 36 475 -30 l 475 219 q 401 292 475 286 l 109 292 l 109 731 l 621 731 l 621 621 "},"õ":{"x_min":109,"x_max":621,"ha":731,"o":"m 401 731 q 593 621 538 731 q 621 511 615 575 l 621 219 q 511 27 621 82 q 401 0 465 5 l 328 0 q 136 109 191 0 q 109 219 112 155 l 109 511 q 218 703 109 648 q 328 731 264 727 l 401 731 m 475 183 l 475 548 q 401 621 475 615 l 328 621 q 255 548 260 621 l 255 183 q 328 110 255 115 l 401 110 q 475 183 469 110 m 158 882 q 183 957 158 924 q 273 998 216 998 q 381 943 324 998 q 455 888 439 888 q 487 919 487 888 l 487 961 l 571 961 l 571 919 q 545 844 571 877 q 455 804 512 804 q 345 859 403 804 q 271 914 287 914 q 240 882 240 914 l 240 841 l 158 841 l 158 882 "},"7":{"x_min":109,"x_max":621,"ha":731,"o":"m 109 731 l 621 731 l 621 621 l 401 -36 l 401 -146 l 255 -146 l 255 -34 l 474 621 l 109 621 l 109 731 "},"K":{"x_min":109,"x_max":621,"ha":731,"o":"m 621 255 l 621 0 l 475 0 l 475 292 q 401 366 469 366 l 255 366 l 255 0 l 109 0 l 109 877 l 255 877 l 255 476 l 315 475 l 475 768 l 475 877 l 621 877 l 621 767 l 456 469 q 621 255 621 423 "},",":{"x_min":292,"x_max":438.203125,"ha":731,"o":"m 292 146 l 438 146 l 328 -146 l 292 -146 l 292 146 "},"d":{"x_min":109,"x_max":621,"ha":731,"o":"m 401 731 q 593 621 538 731 q 621 511 615 575 l 621 219 q 511 27 621 82 q 401 0 465 5 l 109 0 l 109 731 l 401 731 m 475 183 l 475 548 q 401 621 475 615 l 255 621 l 255 110 l 401 110 q 475 183 469 110 "},"¨":{"x_min":164,"x_max":566,"ha":731,"o":"m 164 841 l 164 987 l 310 987 l 310 841 l 164 841 m 420 987 l 566 987 l 566 841 l 420 841 l 420 987 "},"Ô":{"x_min":109,"x_max":621,"ha":731,"o":"m 182 950 l 328 1170 l 401 1170 l 547 950 l 437 950 l 364 1078 l 291 950 l 182 950 m 401 877 q 593 767 538 877 q 621 657 615 721 l 621 219 q 511 27 621 82 q 401 0 465 5 l 328 0 q 136 109 191 0 q 109 219 114 155 l 109 657 q 218 849 109 794 q 328 877 264 871 l 401 877 m 475 183 l 475 694 q 401 767 475 761 l 328 767 q 255 694 260 767 l 255 183 q 328 110 255 115 l 401 110 q 475 183 469 110 "},"E":{"x_min":146,"x_max":585,"ha":731,"o":"m 585 767 l 292 767 l 292 512 l 548 512 l 548 402 l 292 402 l 292 110 l 585 110 l 585 0 l 146 0 l 146 877 l 585 877 l 585 767 "},"Y":{"x_min":109,"x_max":621,"ha":731,"o":"m 475 877 l 621 877 l 621 767 l 438 292 l 438 0 l 292 0 l 292 292 l 109 767 l 109 877 l 255 877 l 255 767 l 365 402 l 475 767 l 475 877 "},"\"":{"x_min":147,"x_max":549,"ha":731,"o":"m 293 730 l 256 548 l 183 548 l 147 730 l 147 877 l 293 877 l 293 730 m 549 730 l 512 548 l 439 548 l 403 730 l 403 877 l 549 877 l 549 730 "},"‹":{"x_min":36,"x_max":693.90625,"ha":731,"o":"m 255 71 l 36 326 l 36 400 l 255 656 l 364 656 l 364 546 l 291 546 l 163 419 l 693 419 l 693 309 l 163 309 l 291 181 l 364 181 l 364 71 l 255 71 "},"ê":{"x_min":146,"x_max":585,"ha":731,"o":"m 585 621 l 292 621 l 292 439 l 548 439 l 548 329 l 292 329 l 292 110 l 585 110 l 585 0 l 146 0 l 146 731 l 585 731 l 585 621 m 182 804 l 328 1023 l 401 1023 l 548 804 l 438 804 l 365 932 l 292 804 l 182 804 "},"Ï":{"x_min":146,"x_max":584,"ha":731,"o":"m 164 987 l 164 1133 l 310 1133 l 310 987 l 164 987 m 420 1133 l 566 1133 l 566 987 l 420 987 l 420 1133 m 584 767 l 438 767 l 438 110 l 584 110 l 584 0 l 146 0 l 146 110 l 292 110 l 292 767 l 146 767 l 146 877 l 584 877 l 584 767 "},"„":{"x_min":164,"x_max":566.046875,"ha":731,"o":"m 164 146 l 310 146 l 200 -146 l 164 -146 l 164 146 m 419 146 l 566 146 l 456 -146 l 419 -146 l 419 146 "},"Â":{"x_min":109,"x_max":621,"ha":731,"o":"m 182 950 l 328 1170 l 401 1170 l 547 950 l 437 950 l 364 1078 l 291 950 l 182 950 m 438 877 l 621 109 l 621 0 l 475 0 l 475 109 l 443 292 l 286 292 l 255 109 l 255 0 l 109 0 l 109 109 l 291 877 l 438 877 m 304 402 l 425 402 l 364 767 l 304 402 "},"Í":{"x_min":146,"x_max":584,"ha":731,"o":"m 493 1170 l 420 951 l 310 951 l 383 1170 l 493 1170 m 584 767 l 438 767 l 438 110 l 584 110 l 584 0 l 146 0 l 146 110 l 292 110 l 292 767 l 146 767 l 146 877 l 584 877 l 584 767 "},"´":{"x_min":310.015625,"x_max":492.75,"ha":731,"o":"m 492 1023 l 419 804 l 310 804 l 383 1023 l 492 1023 "},"ì":{"x_min":146,"x_max":584,"ha":731,"o":"m 584 621 l 438 621 l 438 110 l 584 110 l 584 0 l 146 0 l 146 110 l 292 110 l 292 621 l 146 621 l 146 731 l 584 731 l 584 621 m 237 1023 l 347 1023 l 420 804 l 310 804 l 237 1023 "},"±":{"x_min":109,"x_max":621,"ha":731,"o":"m 127 365 l 127 475 l 310 475 l 310 658 l 420 658 l 420 475 l 603 475 l 603 365 l 420 365 l 420 182 l 310 182 l 310 365 l 127 365 m 109 110 l 621 110 l 621 0 l 109 0 l 109 110 "},"Ú":{"x_min":109,"x_max":621,"ha":731,"o":"m 492 1170 l 419 951 l 310 951 l 383 1170 l 492 1170 m 475 877 l 621 877 l 621 219 q 511 27 621 82 q 401 0 465 5 l 328 0 q 136 109 191 0 q 109 219 112 155 l 109 877 l 255 877 l 255 183 q 328 110 255 115 l 401 110 q 475 183 469 110 l 475 877 "},"|":{"x_min":329,"x_max":439,"ha":731,"o":"m 439 -146 l 329 -146 l 329 877 l 439 877 l 439 -146 "},"§":{"x_min":109,"x_max":621,"ha":731,"o":"m 621 621 l 475 621 l 475 694 q 401 767 469 767 l 328 767 q 255 694 255 761 l 255 621 q 328 548 255 553 l 438 548 q 567 494 513 548 q 621 365 621 440 q 560 230 621 285 q 621 73 621 159 q 593 -36 615 9 q 401 -146 538 -146 l 328 -146 q 218 -118 264 -142 q 109 73 109 -63 l 109 109 l 255 109 l 255 36 q 328 -36 260 -36 l 401 -36 q 475 37 475 -30 l 475 110 q 401 183 475 177 l 292 183 q 162 236 216 183 q 109 365 109 290 q 169 500 109 445 q 109 657 109 572 q 136 767 114 721 q 328 877 191 877 l 401 877 q 511 849 465 873 q 621 657 621 794 l 621 621 m 328 438 q 255 365 260 438 q 328 293 260 293 l 401 293 q 475 365 469 293 q 401 438 469 438 l 328 438 "},"Ý":{"x_min":109,"x_max":621,"ha":731,"o":"m 492 1170 l 419 951 l 310 951 l 383 1170 l 492 1170 m 475 877 l 621 877 l 621 767 l 438 292 l 438 0 l 292 0 l 292 292 l 109 767 l 109 877 l 255 877 l 255 767 l 365 402 l 475 767 l 475 877 "},"b":{"x_min":109,"x_max":621,"ha":731,"o":"m 490 411 q 621 219 621 356 q 593 109 615 155 q 401 0 538 0 l 109 0 l 109 731 l 364 731 q 556 639 501 731 q 584 548 578 601 q 490 411 584 444 m 255 621 l 255 439 l 364 439 q 438 511 432 439 l 438 548 q 364 621 438 615 l 255 621 m 475 183 l 475 256 q 401 329 475 323 l 255 329 l 255 110 l 401 110 q 475 183 469 110 "},"q":{"x_min":109,"x_max":621,"ha":731,"o":"m 401 727 q 593 617 538 727 q 621 507 615 571 l 621 215 q 449 0 621 43 l 511 -150 l 364 -150 l 306 -1 q 185 43 235 5 q 109 215 109 100 l 109 507 q 218 699 109 644 q 328 727 264 721 l 401 727 m 475 179 l 475 544 q 401 617 475 611 l 328 617 q 255 544 260 617 l 255 179 q 328 106 255 111 l 401 106 q 475 179 469 106 "},"Ω":{"x_min":73,"x_max":658,"ha":731,"o":"m 475 548 q 402 621 469 621 l 329 621 q 256 548 256 615 l 256 183 q 328 110 261 110 l 329 0 l 73 0 l 73 110 l 199 109 q 110 292 110 180 l 110 511 q 137 621 115 575 q 329 731 192 731 l 402 731 q 599 621 549 731 q 621 511 621 575 l 621 292 q 531 109 621 180 l 658 110 l 658 0 l 402 0 l 401 110 q 475 183 469 110 l 475 548 "},"Ö":{"x_min":109,"x_max":621,"ha":731,"o":"m 164 987 l 164 1133 l 310 1133 l 310 987 l 164 987 m 420 1133 l 566 1133 l 566 987 l 420 987 l 420 1133 m 401 877 q 593 767 538 877 q 621 657 615 721 l 621 219 q 511 27 621 82 q 401 0 465 5 l 328 0 q 136 109 191 0 q 109 219 114 155 l 109 657 q 218 849 109 794 q 328 877 264 871 l 401 877 m 475 183 l 475 694 q 401 767 475 761 l 328 767 q 255 694 260 767 l 255 183 q 328 110 255 115 l 401 110 q 475 183 469 110 "},"z":{"x_min":110,"x_max":585,"ha":731,"o":"m 585 621 l 256 110 l 585 110 l 585 0 l 110 0 l 110 110 l 438 621 l 110 621 l 110 731 l 585 731 l 585 621 "},"™":{"x_min":73,"x_max":658,"ha":731,"o":"m 306 872 l 306 803 l 237 803 l 237 473 l 142 473 l 142 803 l 73 803 l 73 872 l 306 872 m 541 872 l 658 872 l 658 473 l 565 473 l 565 778 l 493 496 l 424 779 l 424 473 l 331 473 l 331 872 l 447 872 l 493 684 l 541 872 "},"ã":{"x_min":109,"x_max":621,"ha":731,"o":"m 438 731 l 621 109 l 621 0 l 475 0 l 475 109 l 451 219 l 278 219 l 255 109 l 255 0 l 109 0 l 109 109 l 291 731 l 438 731 m 302 329 l 426 329 l 364 621 l 302 329 m 158 882 q 183 957 158 924 q 273 998 216 998 q 381 943 324 998 q 455 888 439 888 q 487 919 487 888 l 487 961 l 571 961 l 571 919 q 545 844 571 877 q 455 804 512 804 q 345 859 403 804 q 271 914 287 914 q 240 882 240 914 l 240 841 l 158 841 l 158 882 "},"æ":{"x_min":110,"x_max":1317,"ha":1462,"o":"m 438 731 l 621 110 l 621 0 l 475 0 l 475 110 l 451 219 l 279 219 l 256 110 l 256 0 l 110 0 l 110 110 l 292 731 l 438 731 m 303 329 l 427 329 l 365 621 l 303 329 m 1317 621 l 1024 621 l 1024 439 l 1280 439 l 1280 329 l 1024 329 l 1024 110 l 1317 110 l 1317 0 l 878 0 l 878 731 l 1317 731 l 1317 621 "},"®":{"x_min":36,"x_max":694,"ha":731,"o":"m 365 877 q 598 781 502 877 q 694 548 694 685 q 598 314 694 410 q 365 219 502 219 q 131 314 227 219 q 36 548 36 410 q 131 781 36 685 q 365 877 227 877 m 365 292 q 546 366 471 292 q 621 548 621 441 q 546 729 621 654 q 365 804 471 804 q 183 729 258 804 q 109 548 109 654 q 183 366 109 441 q 365 292 258 292 m 493 593 q 469 529 493 557 q 410 495 445 502 l 493 402 l 408 402 l 341 493 l 310 493 l 310 402 l 237 402 l 237 694 l 392 694 q 463 664 434 694 q 493 593 493 635 m 420 584 l 420 602 q 383 639 420 637 l 310 639 l 310 548 l 383 548 q 420 584 418 548 "},"É":{"x_min":146,"x_max":585,"ha":731,"o":"m 493 1170 l 420 951 l 310 951 l 383 1170 l 493 1170 m 585 767 l 292 767 l 292 512 l 548 512 l 548 402 l 292 402 l 292 110 l 585 110 l 585 0 l 146 0 l 146 877 l 585 877 l 585 767 "},"~":{"x_min":130,"x_max":638,"ha":731,"o":"m 130 345 q 159 426 130 391 q 256 470 193 470 q 411 407 307 470 q 511 360 489 360 q 532 381 532 360 l 535 433 l 638 433 l 638 381 q 608 299 638 334 q 511 256 573 256 q 356 318 460 256 q 255 366 277 366 q 235 344 235 366 l 232 293 l 130 293 l 130 345 "},"³":{"x_min":237,"x_max":493,"ha":731,"o":"m 434 703 q 493 621 493 678 q 383 512 485 512 l 346 512 q 237 621 237 519 l 237 639 l 310 639 l 310 603 q 346 567 311 567 l 383 567 q 420 603 420 568 l 420 639 q 383 676 418 676 l 329 676 l 329 731 l 383 731 q 420 767 420 732 l 420 785 q 383 822 418 822 l 346 822 q 310 785 310 820 l 310 749 l 237 749 l 237 767 q 346 877 244 877 l 383 877 q 493 785 485 877 l 493 767 q 434 703 493 709 "},"¡":{"x_min":292,"x_max":438,"ha":731,"o":"m 438 -146 l 292 -146 l 292 0 l 328 439 l 401 439 l 438 0 l 438 -146 m 438 731 l 438 585 l 292 585 l 292 731 l 438 731 "},"[":{"x_min":183,"x_max":549,"ha":731,"o":"m 549 877 l 549 767 l 329 767 l 329 -36 l 549 -36 l 549 -146 l 183 -146 l 183 877 l 549 877 "},"L":{"x_min":183,"x_max":622,"ha":731,"o":"m 329 110 l 622 110 l 622 0 l 183 0 l 183 877 l 329 877 l 329 110 "}," ":{"x_min":0,"x_max":0,"ha":731},"∑":{"x_min":109,"x_max":621,"ha":731,"o":"m 621 877 l 621 767 l 255 767 l 474 402 l 474 328 l 255 -36 l 621 -36 l 621 -146 l 109 -146 l 109 -36 l 328 328 l 328 402 l 109 767 l 109 877 l 621 877 "},"%":{"x_min":86,"x_max":644.890625,"ha":731,"o":"m 603 718 l 644 676 l 127 159 l 86 201 l 603 718 m 493 293 q 583 255 546 293 q 621 164 621 217 l 621 128 q 583 37 621 75 q 493 0 546 0 q 403 37 440 0 q 366 128 366 75 l 366 164 q 403 255 366 217 q 493 293 440 293 m 548 109 l 548 183 q 531 221 548 205 q 493 238 515 238 q 455 221 471 238 q 439 183 439 205 l 439 109 q 455 71 439 87 q 493 55 471 55 q 531 71 515 55 q 548 109 548 87 m 238 585 q 147 622 184 585 q 110 712 110 659 l 110 749 q 147 839 110 802 q 238 877 184 877 q 328 839 291 877 q 366 749 366 802 l 366 712 q 328 622 366 659 q 238 585 291 585 m 183 767 l 183 694 q 199 656 183 672 q 238 640 216 640 q 276 656 260 640 q 293 694 293 672 l 293 767 q 276 805 293 789 q 238 822 260 822 q 199 805 216 822 q 183 767 183 789 "},"P":{"x_min":109,"x_max":621,"ha":731,"o":"m 401 877 q 593 767 538 877 q 621 657 615 721 l 621 548 q 511 356 621 411 q 401 329 465 332 l 255 329 l 255 0 l 109 0 l 109 877 l 401 877 m 475 511 l 475 694 q 401 767 475 761 l 255 767 l 255 439 l 401 439 q 475 511 469 439 "},"∏":{"x_min":73,"x_max":658,"ha":731,"o":"m 658 877 l 658 767 l 585 767 l 585 0 l 439 0 l 439 767 l 292 767 l 292 0 l 146 0 l 146 767 l 73 767 l 73 877 l 658 877 "},"À":{"x_min":109,"x_max":621,"ha":731,"o":"m 236 1170 l 346 1170 l 419 951 l 310 951 l 236 1170 m 438 877 l 621 109 l 621 0 l 475 0 l 475 109 l 443 292 l 286 292 l 255 109 l 255 0 l 109 0 l 109 109 l 291 877 l 438 877 m 304 402 l 425 402 l 364 767 l 304 402 "},"_":{"x_min":36,"x_max":693.90625,"ha":731,"o":"m 36 110 l 693 110 l 693 0 l 36 0 l 36 110 "},"ñ":{"x_min":109,"x_max":621,"ha":731,"o":"m 475 731 l 621 731 l 621 0 l 475 0 l 475 109 l 255 438 l 255 0 l 109 0 l 109 731 l 255 731 l 255 620 l 475 291 l 475 731 m 158 882 q 183 957 158 924 q 273 998 216 998 q 381 943 324 998 q 455 888 439 888 q 487 919 487 888 l 487 961 l 571 961 l 571 919 q 545 844 571 877 q 455 804 512 804 q 345 859 403 804 q 271 914 287 914 q 240 882 240 914 l 240 841 l 158 841 l 158 882 "},"+":{"x_min":109,"x_max":621,"ha":731,"o":"m 621 420 l 621 310 l 420 310 l 420 110 l 310 110 l 310 310 l 109 310 l 109 420 l 310 420 l 310 621 l 420 621 l 420 420 l 621 420 "},"‚":{"x_min":292,"x_max":438.203125,"ha":731,"o":"m 292 146 l 438 146 l 328 -146 l 292 -146 l 292 146 "},"½":{"x_min":86.328125,"x_max":645.21875,"ha":731,"o":"m 256 567 l 329 567 l 329 512 l 110 512 l 110 567 l 183 567 l 183 804 l 110 804 l 110 858 l 256 877 l 256 567 m 439 109 l 439 55 l 621 55 l 621 0 l 366 0 l 366 91 q 475 201 373 201 l 511 201 q 548 238 548 202 l 548 274 q 511 311 546 311 l 475 311 q 439 274 439 309 l 439 238 l 366 238 l 366 256 q 475 366 373 366 l 511 366 q 621 256 621 358 q 511 146 613 146 l 475 146 q 439 109 439 144 m 603 717 l 645 675 l 128 158 l 86 200 l 603 717 "},"Æ":{"x_min":110,"x_max":1317,"ha":1462,"o":"m 1317 767 l 1024 767 l 1024 512 l 1280 512 l 1280 402 l 1024 402 l 1024 110 l 1317 110 l 1317 0 l 878 0 l 878 877 l 1317 877 l 1317 767 m 438 877 l 621 110 l 621 0 l 475 0 l 475 110 l 443 292 l 287 292 l 256 110 l 256 0 l 110 0 l 110 110 l 292 877 l 438 877 m 305 402 l 426 402 l 365 767 l 305 402 "},"Ë":{"x_min":146,"x_max":585,"ha":731,"o":"m 164 987 l 164 1133 l 310 1133 l 310 987 l 164 987 m 420 1133 l 566 1133 l 566 987 l 420 987 l 420 1133 m 585 767 l 292 767 l 292 512 l 548 512 l 548 402 l 292 402 l 292 110 l 585 110 l 585 0 l 146 0 l 146 877 l 585 877 l 585 767 "},"'":{"x_min":275,"x_max":421,"ha":731,"o":"m 421 730 l 384 548 l 311 548 l 275 730 l 275 877 l 421 877 l 421 730 "},"Š":{"x_min":109,"x_max":621,"ha":731,"o":"m 547 1170 l 401 950 l 328 950 l 182 1170 l 291 1170 l 364 1041 l 437 1170 l 547 1170 m 109 657 q 218 849 109 794 q 328 877 264 871 l 401 877 q 593 767 538 877 q 621 657 615 721 l 621 621 l 475 621 l 475 694 q 401 767 475 761 l 328 767 q 255 694 260 767 l 255 584 q 328 512 255 517 l 401 512 q 593 402 538 512 q 621 292 615 356 l 621 219 q 593 109 615 155 q 401 0 538 0 l 328 0 q 218 27 264 3 q 109 219 109 82 l 109 255 l 255 255 l 255 182 q 328 110 260 110 l 401 110 q 475 183 475 115 l 475 329 q 401 402 475 396 l 328 402 q 136 511 191 402 q 109 621 112 557 l 109 657 "},"ª":{"x_min":183,"x_max":549,"ha":731,"o":"m 384 877 q 494 767 486 877 l 494 512 l 439 512 l 420 567 q 365 512 417 512 l 347 512 q 237 621 245 512 q 347 731 245 731 l 421 731 l 421 785 q 384 822 419 822 l 256 822 l 256 877 l 384 877 m 310 603 q 347 566 310 568 l 384 566 q 421 603 419 566 l 421 676 l 347 676 q 310 639 312 676 l 310 603 m 183 366 l 183 423 l 549 423 l 549 366 l 183 366 "},"Œ":{"x_min":110,"x_max":1317,"ha":1462,"o":"m 402 877 q 593 767 538 877 q 621 657 617 721 l 621 219 q 511 27 621 82 q 402 0 465 5 l 329 0 q 137 109 192 0 q 110 219 115 155 l 110 657 q 219 849 110 794 q 329 877 265 871 l 402 877 m 475 183 l 475 694 q 402 767 475 761 l 329 767 q 256 694 261 767 l 256 183 q 329 110 256 115 l 402 110 q 475 183 469 110 m 1317 767 l 1024 767 l 1024 512 l 1280 512 l 1280 402 l 1024 402 l 1024 110 l 1317 110 l 1317 0 l 878 0 l 878 877 l 1317 877 l 1317 767 "},"ð":{"x_min":39,"x_max":629,"ha":731,"o":"m 410 731 q 601 621 546 731 q 629 511 623 575 l 629 219 q 519 27 629 82 q 410 0 473 5 l 118 0 l 118 317 l 48 305 l 39 362 l 118 376 l 118 731 l 410 731 m 483 183 l 483 548 q 410 621 483 615 l 264 621 l 264 401 l 399 425 l 408 369 l 264 343 l 264 110 l 410 110 q 483 183 477 110 "},"T":{"x_min":73,"x_max":657,"ha":731,"o":"m 657 877 l 657 767 l 438 767 l 438 0 l 292 0 l 292 767 l 73 767 l 73 877 l 657 877 "},"š":{"x_min":109,"x_max":620.6875,"ha":731,"o":"m 328 731 l 401 731 q 593 621 538 731 q 620 512 615 575 l 474 512 l 474 548 q 401 621 474 615 l 328 621 q 255 548 260 621 l 255 511 q 328 439 255 444 l 401 439 q 593 329 538 439 q 620 219 615 283 q 593 109 615 155 q 401 0 538 0 l 328 0 q 218 27 264 3 q 109 219 109 82 l 109 255 l 255 255 l 255 182 q 328 110 260 110 l 401 110 q 474 183 474 115 l 474 256 q 401 329 474 323 l 328 329 q 136 420 191 329 q 109 511 112 458 l 109 548 q 218 707 109 661 q 328 731 264 727 m 547 1023 l 401 804 l 328 804 l 182 1023 l 291 1023 l 364 895 l 437 1023 l 547 1023 "},"Þ":{"x_min":109,"x_max":621,"ha":731,"o":"m 401 731 q 593 621 538 731 q 621 511 615 575 l 621 365 q 511 173 621 228 q 401 146 465 149 l 255 146 l 255 0 l 109 0 l 109 877 l 255 877 l 255 731 l 401 731 m 475 329 l 475 548 q 401 621 475 615 l 255 621 l 255 256 l 401 256 q 475 329 469 256 "},"j":{"x_min":109,"x_max":621,"ha":731,"o":"m 146 731 l 621 731 l 621 219 q 593 109 615 155 q 401 0 538 0 l 328 0 q 218 27 264 3 q 109 219 109 82 l 109 255 l 255 255 l 255 182 q 328 110 260 110 l 401 110 q 475 183 475 115 l 475 621 l 146 621 l 146 731 "},"1":{"x_min":146,"x_max":584,"ha":731,"o":"m 438 110 l 584 110 l 584 0 l 146 0 l 146 110 l 292 110 l 292 584 l 146 584 l 146 694 l 438 731 l 438 110 "},"›":{"x_min":36,"x_max":693.90625,"ha":731,"o":"m 474 656 l 693 400 l 693 326 l 474 71 l 364 71 l 364 181 l 438 181 l 565 309 l 36 309 l 36 419 l 565 419 l 438 546 l 364 546 l 364 656 l 474 656 "},"ı":{"x_min":146,"x_max":584,"ha":731,"o":"m 584 621 l 438 621 l 438 110 l 584 110 l 584 0 l 146 0 l 146 110 l 292 110 l 292 621 l 146 621 l 146 731 l 584 731 l 584 621 "},"ä":{"x_min":109,"x_max":621,"ha":731,"o":"m 438 731 l 621 109 l 621 0 l 475 0 l 475 109 l 451 219 l 278 219 l 255 109 l 255 0 l 109 0 l 109 109 l 291 731 l 438 731 m 302 329 l 426 329 l 364 621 l 302 329 m 164 841 l 164 987 l 310 987 l 310 841 l 164 841 m 420 987 l 566 987 l 566 841 l 420 841 l 420 987 "},"<":{"x_min":109,"x_max":620.6875,"ha":731,"o":"m 620 731 l 620 610 l 229 365 l 620 120 l 620 0 l 109 328 l 109 402 l 620 731 "},"£":{"x_min":37,"x_max":622,"ha":731,"o":"m 256 110 l 622 110 l 622 0 l 110 0 l 110 309 l 37 309 l 37 366 l 110 366 l 110 512 q 219 703 110 648 q 329 731 265 725 l 402 731 q 594 621 539 731 q 622 511 616 575 l 622 475 l 476 475 l 476 548 q 402 621 476 615 l 329 621 q 256 548 261 621 l 256 366 l 439 366 l 439 309 l 256 309 l 256 110 "},"¹":{"x_min":256,"x_max":475,"ha":731,"o":"m 402 567 l 475 567 l 475 512 l 256 512 l 256 567 l 329 567 l 329 804 l 256 804 l 256 858 l 402 877 l 402 567 "},"t":{"x_min":73,"x_max":657,"ha":731,"o":"m 657 731 l 657 621 l 438 621 l 438 0 l 292 0 l 292 621 l 73 621 l 73 731 l 657 731 "},"¬":{"x_min":109,"x_max":621,"ha":731,"o":"m 621 420 l 621 183 l 511 183 l 511 310 l 109 310 l 109 420 l 621 420 "},"ù":{"x_min":109,"x_max":621,"ha":731,"o":"m 475 731 l 621 731 l 621 219 q 511 27 621 82 q 401 0 465 5 l 328 0 q 136 109 191 0 q 109 219 112 155 l 109 731 l 255 731 l 255 183 q 328 110 255 115 l 401 110 q 475 183 469 110 l 475 731 m 236 1023 l 346 1023 l 419 804 l 310 804 l 236 1023 "},"W":{"x_min":109,"x_max":621,"ha":731,"o":"m 475 877 l 621 877 l 621 767 l 548 109 l 548 0 l 438 0 l 438 73 l 365 219 l 292 73 l 292 0 l 182 0 l 182 109 l 109 767 l 109 877 l 255 877 l 255 767 l 280 292 l 365 438 l 449 292 l 475 767 l 475 877 "},"ï":{"x_min":146,"x_max":584,"ha":731,"o":"m 584 621 l 438 621 l 438 110 l 584 110 l 584 0 l 146 0 l 146 110 l 292 110 l 292 621 l 146 621 l 146 731 l 584 731 l 584 621 m 164 841 l 164 987 l 310 987 l 310 841 l 164 841 m 420 987 l 566 987 l 566 841 l 420 841 l 420 987 "},">":{"x_min":109,"x_max":620.6875,"ha":731,"o":"m 109 731 l 620 402 l 620 328 l 109 0 l 109 120 l 500 365 l 109 610 l 109 731 "},"v":{"x_min":109,"x_max":621,"ha":731,"o":"m 621 621 l 438 0 l 291 0 l 109 621 l 109 731 l 255 731 l 255 621 l 365 109 l 475 621 l 475 731 l 621 731 l 621 621 "},"û":{"x_min":109,"x_max":621,"ha":731,"o":"m 475 731 l 621 731 l 621 219 q 511 27 621 82 q 401 0 465 5 l 328 0 q 136 109 191 0 q 109 219 112 155 l 109 731 l 255 731 l 255 183 q 328 110 255 115 l 401 110 q 475 183 469 110 l 475 731 m 182 804 l 328 1023 l 401 1023 l 547 804 l 437 804 l 364 932 l 291 804 l 182 804 "},"Ò":{"x_min":109,"x_max":621,"ha":731,"o":"m 236 1170 l 346 1170 l 419 951 l 310 951 l 236 1170 m 401 877 q 593 767 538 877 q 621 657 615 721 l 621 219 q 511 27 621 82 q 401 0 465 5 l 328 0 q 136 109 191 0 q 109 219 114 155 l 109 657 q 218 849 109 794 q 328 877 264 871 l 401 877 m 475 183 l 475 694 q 401 767 475 761 l 328 767 q 255 694 260 767 l 255 183 q 328 110 255 115 l 401 110 q 475 183 469 110 "},"&":{"x_min":109,"x_max":621,"ha":731,"o":"m 621 475 l 475 475 l 475 621 l 255 621 l 621 109 l 621 0 l 475 0 l 475 109 l 296 358 q 255 292 255 348 l 255 182 q 328 109 255 115 l 401 110 l 401 0 l 328 0 q 136 109 191 0 q 109 219 114 155 l 109 255 q 227 454 109 390 l 109 620 l 109 731 l 621 731 l 621 475 "},"Ð":{"x_min":32.0625,"x_max":622,"ha":731,"o":"m 403 877 q 594 767 539 877 q 622 657 616 721 l 622 219 q 512 27 622 82 q 403 0 466 5 l 111 0 l 111 317 l 41 305 l 32 361 l 111 376 l 111 877 l 403 877 m 476 183 l 476 694 q 403 767 476 761 l 257 767 l 257 401 l 392 425 l 401 369 l 257 343 l 257 110 l 403 110 q 476 183 470 110 "},"I":{"x_min":146,"x_max":584,"ha":731,"o":"m 584 767 l 438 767 l 438 110 l 584 110 l 584 0 l 146 0 l 146 110 l 292 110 l 292 767 l 146 767 l 146 877 l 584 877 l 584 767 "},"ˉ":{"x_min":183,"x_max":549,"ha":731,"o":"m 183 877 l 549 877 l 549 768 l 183 768 l 183 877 "},"G":{"x_min":109,"x_max":621,"ha":731,"o":"m 621 476 l 621 219 q 511 27 621 82 q 401 0 465 5 l 328 0 q 136 109 191 0 q 109 219 114 155 l 109 657 q 218 849 109 794 q 328 877 264 871 l 401 877 q 593 767 538 877 q 621 657 615 721 l 621 621 l 475 621 l 475 694 q 401 767 475 761 l 328 767 q 255 694 260 767 l 255 183 q 328 110 255 115 l 401 110 q 475 183 469 110 l 475 366 l 365 366 l 365 476 l 621 476 "},"`":{"x_min":238,"x_max":420.734375,"ha":731,"o":"m 238 1023 l 347 1023 l 420 804 l 311 804 l 238 1023 "},"·":{"x_min":292,"x_max":438,"ha":731,"o":"m 438 439 l 438 292 l 292 292 l 292 439 l 438 439 "},"r":{"x_min":109,"x_max":621,"ha":731,"o":"m 621 530 q 574 401 621 456 q 456 332 527 345 l 621 109 l 621 0 l 475 0 l 475 109 l 315 329 l 255 329 l 255 0 l 109 0 l 109 731 l 419 731 q 562 672 503 731 q 621 530 621 614 m 255 439 l 401 439 q 475 511 469 439 l 475 548 q 401 621 475 615 l 255 621 l 255 439 "},"¿":{"x_min":109,"x_max":621,"ha":731,"o":"m 328 -146 q 218 -118 264 -140 q 109 73 109 -63 l 109 146 q 292 362 109 329 l 292 439 l 438 439 l 438 256 l 328 256 q 255 183 255 250 l 255 37 q 328 -36 260 -36 l 401 -36 q 475 37 475 -30 l 475 110 l 621 110 l 621 73 q 593 -36 615 9 q 401 -146 538 -146 l 328 -146 m 438 731 l 438 585 l 292 585 l 292 731 l 438 731 "},"ý":{"x_min":109,"x_max":621,"ha":731,"o":"m 475 731 l 621 731 l 621 621 l 438 219 l 438 0 l 292 0 l 292 219 l 109 621 l 109 731 l 255 731 l 255 621 l 365 328 l 475 621 l 475 731 m 492 1023 l 419 804 l 310 804 l 383 1023 l 492 1023 "},"x":{"x_min":109,"x_max":621,"ha":731,"o":"m 621 731 l 621 621 l 483 365 l 621 109 l 621 0 l 475 0 l 475 109 l 365 328 l 255 109 l 255 0 l 109 0 l 109 109 l 246 365 l 109 621 l 109 731 l 255 731 l 255 621 l 365 402 l 475 621 l 475 731 l 621 731 "},"è":{"x_min":146,"x_max":585,"ha":731,"o":"m 585 621 l 292 621 l 292 439 l 548 439 l 548 329 l 292 329 l 292 110 l 585 110 l 585 0 l 146 0 l 146 731 l 585 731 l 585 621 m 237 1023 l 347 1023 l 420 804 l 310 804 l 237 1023 "},"º":{"x_min":183,"x_max":549,"ha":731,"o":"m 384 877 q 494 767 486 877 l 494 621 q 384 512 494 519 l 347 512 q 238 621 245 512 l 238 767 q 347 877 238 869 l 384 877 m 421 603 l 421 785 q 384 822 421 820 l 347 822 q 311 785 312 822 l 311 603 q 347 567 311 568 l 384 567 q 421 603 419 567 m 183 366 l 183 423 l 549 423 l 549 366 l 183 366 "},"Ø":{"x_min":109,"x_max":621,"ha":731,"o":"m 538 833 q 621 657 621 774 l 621 219 q 511 27 621 82 q 401 0 465 3 l 327 0 q 241 16 291 0 l 216 -52 l 161 -32 l 191 43 q 109 219 109 102 l 109 657 q 218 849 109 794 q 328 877 264 871 l 401 877 q 487 860 437 877 l 512 928 l 568 909 l 538 833 m 255 694 l 255 221 l 448 752 q 401 767 430 767 l 328 767 q 255 694 260 767 m 401 110 q 475 183 469 110 l 475 661 l 281 124 q 328 110 299 110 l 401 110 "},"∞":{"x_min":90,"x_max":611,"ha":731,"o":"m 349 451 q 459 517 395 517 q 578 464 536 517 q 611 365 611 420 q 578 266 611 310 q 459 214 536 214 q 349 279 395 214 q 239 214 305 214 q 122 266 164 214 q 90 365 90 310 q 122 464 90 420 q 239 517 164 517 q 349 451 305 517 m 239 433 q 172 365 172 433 q 239 298 172 298 q 304 365 269 298 q 239 433 269 433 m 459 433 q 397 365 431 433 q 459 298 431 298 q 529 365 529 298 q 459 433 529 433 "},"μ":{"x_min":109,"x_max":621,"ha":731,"o":"m 475 731 l 621 731 l 621 0 l 511 0 l 474 110 q 364 0 474 7 l 328 0 q 255 12 297 0 l 255 -292 l 109 -292 l 109 731 l 255 731 l 255 182 q 328 109 255 115 l 401 109 q 475 182 469 109 l 475 731 "},"÷":{"x_min":109,"x_max":621,"ha":731,"o":"m 109 420 l 621 420 l 621 310 l 109 310 l 109 420 m 420 621 l 420 511 l 310 511 l 310 621 l 420 621 m 310 110 l 310 220 l 420 220 l 420 110 l 310 110 "},"h":{"x_min":109,"x_max":621,"ha":731,"o":"m 475 731 l 621 731 l 621 0 l 475 0 l 475 329 l 255 329 l 255 0 l 109 0 l 109 731 l 255 731 l 255 439 l 475 439 l 475 731 "},".":{"x_min":292,"x_max":438,"ha":731,"o":"m 438 146 l 438 0 l 292 0 l 292 146 l 438 146 "},";":{"x_min":292,"x_max":438,"ha":731,"o":"m 438 658 l 438 512 l 292 512 l 292 658 l 438 658 m 292 146 l 438 146 l 328 -146 l 292 -146 l 292 146 "},"f":{"x_min":183,"x_max":622,"ha":731,"o":"m 622 621 l 329 621 l 329 439 l 585 439 l 585 329 l 329 329 l 329 0 l 183 0 l 183 731 l 622 731 l 622 621 "},"“":{"x_min":164,"x_max":566.046875,"ha":731,"o":"m 566 583 l 419 583 l 529 875 l 566 875 l 566 583 m 310 583 l 164 583 l 273 875 l 310 875 l 310 583 "},"A":{"x_min":109,"x_max":621,"ha":731,"o":"m 438 877 l 621 109 l 621 0 l 475 0 l 475 109 l 443 292 l 286 292 l 255 109 l 255 0 l 109 0 l 109 109 l 291 877 l 438 877 m 304 402 l 425 402 l 364 767 l 304 402 "},"6":{"x_min":109,"x_max":621,"ha":731,"o":"m 109 219 l 109 657 q 136 767 114 721 q 328 877 191 877 l 621 877 l 621 767 l 328 767 q 255 694 260 767 l 255 548 l 401 548 q 593 438 538 548 q 621 328 615 392 l 621 219 q 593 109 615 155 q 401 0 538 0 l 328 0 q 218 27 264 3 q 109 219 109 82 m 401 438 l 255 438 l 255 182 q 328 110 260 110 l 401 110 q 475 182 475 115 l 475 365 q 401 438 475 432 "},"‘":{"x_min":292,"x_max":438.203125,"ha":731,"o":"m 438 583 l 292 583 l 401 875 l 438 875 l 438 583 "},"π":{"x_min":73,"x_max":658,"ha":731,"o":"m 554 694 l 658 694 l 658 641 q 585 526 658 557 l 585 0 l 439 0 l 439 547 q 378 582 418 558 q 292 627 315 619 l 292 0 l 146 0 l 146 627 l 73 627 l 73 731 l 276 731 q 431 668 327 731 q 532 621 510 621 q 554 643 552 621 l 554 694 "},"O":{"x_min":109,"x_max":621,"ha":731,"o":"m 401 877 q 593 767 538 877 q 621 657 615 721 l 621 219 q 511 27 621 82 q 401 0 465 5 l 328 0 q 136 109 191 0 q 109 219 114 155 l 109 657 q 218 849 109 794 q 328 877 264 871 l 401 877 m 475 183 l 475 694 q 401 767 475 761 l 328 767 q 255 694 260 767 l 255 183 q 328 110 255 115 l 401 110 q 475 183 469 110 "},"n":{"x_min":109,"x_max":621,"ha":731,"o":"m 475 731 l 621 731 l 621 0 l 475 0 l 475 109 l 255 438 l 255 0 l 109 0 l 109 731 l 255 731 l 255 620 l 475 291 l 475 731 "},"3":{"x_min":109,"x_max":621,"ha":731,"o":"m 621 475 q 503 312 621 356 q 621 146 621 257 l 621 73 q 593 -36 615 9 q 401 -146 538 -146 l 328 -146 q 218 -118 264 -142 q 109 73 109 -63 l 109 109 l 255 109 l 255 36 q 328 -36 260 -36 l 401 -36 q 475 37 475 -30 l 475 183 q 401 256 469 256 l 291 256 l 291 366 l 401 366 q 475 438 475 371 l 475 548 q 401 621 469 621 l 328 621 q 255 548 255 615 l 255 475 l 109 475 l 109 511 q 136 621 114 575 q 328 731 191 731 l 401 731 q 511 703 465 725 q 621 511 621 648 l 621 475 "},"9":{"x_min":109,"x_max":621,"ha":731,"o":"m 621 511 l 621 73 q 593 -36 615 9 q 401 -146 538 -146 l 109 -146 l 109 -36 l 401 -36 q 475 37 469 -36 l 475 183 l 328 183 q 136 292 191 183 q 109 402 114 338 l 109 511 q 136 621 114 575 q 328 731 191 731 l 401 731 q 511 703 465 725 q 621 511 621 648 m 328 293 l 475 293 l 475 548 q 401 621 469 621 l 328 621 q 255 548 255 615 l 255 365 q 328 293 255 298 "},"l":{"x_min":183,"x_max":622,"ha":731,"o":"m 329 110 l 622 110 l 622 0 l 183 0 l 183 731 l 329 731 l 329 110 "},"¤":{"x_min":37,"x_max":622,"ha":731,"o":"m 622 475 l 476 475 l 476 548 q 403 621 476 615 l 329 621 q 256 548 261 621 l 256 475 l 403 475 l 403 418 l 256 418 l 256 313 l 403 313 l 403 256 l 256 256 l 256 183 q 329 110 256 115 l 403 110 q 476 183 470 110 l 476 256 l 622 256 l 622 219 q 512 27 622 82 q 403 0 466 3 l 329 0 q 137 109 192 0 q 110 219 115 155 l 110 256 l 37 256 l 37 313 l 110 313 l 110 418 l 37 418 l 37 475 l 110 475 l 110 511 q 219 703 110 648 q 329 731 265 725 l 403 731 q 594 621 539 731 q 622 511 616 575 l 622 475 "},"":{"x_min":183,"x_max":1316,"ha":1462,"o":"m 622 621 l 329 621 l 329 439 l 585 439 l 585 329 l 329 329 l 329 0 l 183 0 l 183 731 l 622 731 l 622 621 m 1316 621 l 1170 621 l 1170 110 l 1316 110 l 1316 0 l 878 0 l 878 110 l 1024 110 l 1024 621 l 878 621 l 878 731 l 1316 731 l 1316 621 "},"∂":{"x_min":109,"x_max":621,"ha":731,"o":"m 109 365 q 218 557 109 502 q 328 585 264 579 l 475 585 l 475 621 q 328 767 475 756 l 182 767 l 182 877 l 328 877 q 584 730 511 877 q 621 584 615 670 l 621 219 q 511 27 621 82 q 401 0 465 3 l 328 0 q 136 109 191 0 q 109 219 114 155 l 109 365 m 255 402 l 255 183 q 328 110 260 110 l 401 110 q 475 183 469 110 l 475 475 l 328 475 q 255 402 260 475 "},"4":{"x_min":74,"x_max":622,"ha":731,"o":"m 622 183 l 622 73 l 549 73 l 549 -146 l 403 -146 l 403 73 l 74 73 l 74 183 l 402 731 l 549 731 l 549 183 l 622 183 m 183 183 l 403 183 l 403 548 l 183 183 "},"p":{"x_min":109,"x_max":621,"ha":731,"o":"m 401 731 q 593 621 538 731 q 621 511 615 575 l 621 475 q 511 283 621 338 q 401 256 465 259 l 255 256 l 255 0 l 109 0 l 109 731 l 401 731 m 475 438 l 475 548 q 401 621 475 615 l 255 621 l 255 366 l 401 366 q 475 438 469 366 "},"‡":{"x_min":73,"x_max":659,"ha":731,"o":"m 659 254 l 402 35 l 329 35 l 73 254 l 73 363 l 183 363 l 183 290 l 311 162 l 311 693 l 421 693 l 421 162 l 549 290 l 549 363 l 659 363 l 659 254 "},"à":{"x_min":109,"x_max":621,"ha":731,"o":"m 438 731 l 621 109 l 621 0 l 475 0 l 475 109 l 451 219 l 278 219 l 255 109 l 255 0 l 109 0 l 109 109 l 291 731 l 438 731 m 302 329 l 426 329 l 364 621 l 302 329 m 236 1023 l 346 1023 l 419 804 l 310 804 l 236 1023 "},"Ü":{"x_min":109,"x_max":621,"ha":731,"o":"m 164 987 l 164 1133 l 310 1133 l 310 987 l 164 987 m 420 1133 l 566 1133 l 566 987 l 420 987 l 420 1133 m 475 877 l 621 877 l 621 219 q 511 27 621 82 q 401 0 465 5 l 328 0 q 136 109 191 0 q 109 219 112 155 l 109 877 l 255 877 l 255 183 q 328 110 255 115 l 401 110 q 475 183 469 110 l 475 877 "},"ó":{"x_min":109,"x_max":621,"ha":731,"o":"m 401 731 q 593 621 538 731 q 621 511 615 575 l 621 219 q 511 27 621 82 q 401 0 465 5 l 328 0 q 136 109 191 0 q 109 219 112 155 l 109 511 q 218 703 109 648 q 328 731 264 727 l 401 731 m 475 183 l 475 548 q 401 621 475 615 l 328 621 q 255 548 260 621 l 255 183 q 328 110 255 115 l 401 110 q 475 183 469 110 m 492 1023 l 419 804 l 310 804 l 383 1023 l 492 1023 "},"√":{"x_min":109,"x_max":621,"ha":731,"o":"m 547 767 l 365 0 l 218 0 l 109 512 l 255 512 l 292 109 l 402 767 l 402 877 l 621 877 l 621 767 l 547 767 "}}}
